<?xml version="1.0" standalone="no"?>
<!DOCTYPE svg PUBLIC "-//W3C//DTD SVG 1.1//EN" "http://www.w3.org/Graphics/SVG/1.1/DTD/svg11.dtd" >
<svg xmlns="http://www.w3.org/2000/svg" xmlns:xlink="http://www.w3.org/1999/xlink" version="1.1">
<metadata></metadata>
<defs>
<font id="lft_eticaitalic" horiz-adv-x="1527" >
<font-face units-per-em="2048" ascent="1495" descent="-553" />
<missing-glyph horiz-adv-x="419" />
<glyph unicode="&#xfb01;" horiz-adv-x="1101" d="M86 0l156 930h-125l18 112l129 25l25 141q21 134 96.5 213.5t204.5 79.5q68 0 139 -18l-33 -137q-44 14 -92 14q-51 0 -89.5 -33.5t-49.5 -107.5l-25 -144h580l-180 -1075h-176l155 930h-403l-156 -930h-174zM866 1348q0 57 39 92t94 35q46 0 72.5 -25t26.5 -68 q0 -58 -37.5 -92.5t-95.5 -34.5q-43 0 -71 25.5t-28 67.5z" />
<glyph unicode="&#xfb02;" horiz-adv-x="1091" d="M86 0l156 930h-125l18 112l129 25l25 141q21 134 96.5 213.5t204.5 79.5q68 0 139 -18l-33 -137q-44 14 -92 14q-51 0 -89.5 -33.5t-49.5 -107.5l-25 -144h404l65 400h176l-245 -1475h-176l155 930h-403l-156 -930h-174z" />
<glyph unicode="&#xfb03;" horiz-adv-x="1677" d="M86 0l156 930h-125l18 112l129 25l21 119q23 134 97.5 212.5t203.5 78.5q59 0 141 -21l-35 -133q-44 14 -92 14q-52 0 -90 -33.5t-49 -109.5l-21 -119h404l22 133q21 133 97 213t204 80q73 0 140 -18l-31 -137q-44 14 -92 14q-51 0 -90 -33.5t-50 -107.5l-24 -144h575 l-180 -1075h-176l156 930h-400l-155 -930h-176l155 930h-403l-156 -930h-174zM1442 1348q0 57 39 92t94 35q46 0 72 -25t26 -68q0 -58 -37.5 -92.5t-95.5 -34.5q-43 0 -70.5 25.5t-27.5 67.5z" />
<glyph unicode="&#xfb04;" horiz-adv-x="1673" d="M86 0l156 930h-125l18 112l129 25l21 117q21 134 95.5 212.5t203.5 78.5q72 0 143 -21l-35 -133q-44 14 -92 14q-51 0 -89.5 -33.5t-49.5 -107.5l-21 -119h406l22 133q21 134 96.5 213.5t204.5 79.5q73 0 140 -18l-31 -137q-44 14 -92 14q-51 0 -89.5 -33.5t-49.5 -107.5 l-25 -144h403l66 400h176l-246 -1475h-176l156 930h-404l-155 -930h-176l155 930h-405l-156 -930h-174z" />
<glyph horiz-adv-x="0" />
<glyph horiz-adv-x="682" />
<glyph unicode=" "  horiz-adv-x="419" />
<glyph unicode="&#x09;" horiz-adv-x="419" />
<glyph unicode="&#xa0;" horiz-adv-x="419" />
<glyph unicode="!" horiz-adv-x="624" d="M96 76q0 66 43.5 105.5t110.5 39.5q50 0 79 -26.5t29 -75.5q0 -63 -43 -103.5t-106 -40.5q-53 0 -83 27.5t-30 73.5zM209 414l74 569l82 492h184l-82 -492l-113 -569h-145z" />
<glyph unicode="&#x22;" horiz-adv-x="763" d="M184 903v572h170v-572h-170zM494 903v572h172v-572h-172z" />
<glyph unicode="#" horiz-adv-x="1425" d="M104 389v123h271l96 279h-254v124h297l139 398l119 -29l-129 -369h313l142 394l116 -25l-129 -369h244v-124h-289l-96 -279h273v-123h-312l-135 -364l-117 26l123 338h-315l-133 -364l-115 26l119 338h-228zM506 512h309l98 279h-317z" />
<glyph unicode="$" horiz-adv-x="1044" d="M-27 205l109 106q152 -168 338 -168q135 0 225 69.5t90 193.5q0 77 -58.5 131t-205.5 102q-167 55 -243 132t-76 200q0 181 121 293.5t307 130.5l28 172h152l-29 -174q98 -15 176.5 -63.5t128.5 -123.5l-108 -98q-60 69 -138 108t-161 39q-131 0 -215 -62t-84 -177 q0 -85 64.5 -136t211.5 -100q161 -55 235 -136.5t74 -201.5q0 -175 -116.5 -293t-300.5 -147l-31 -180h-152l31 178q-122 10 -216.5 66t-156.5 139z" />
<glyph unicode="%" horiz-adv-x="1742" d="M164 1075q0 162 114 275.5t279 113.5q126 0 203.5 -77.5t77.5 -202.5q0 -158 -118.5 -270.5t-275.5 -112.5q-129 0 -204.5 75t-75.5 199zM258 0l1122 1475h156l-1122 -1475h-156zM305 1098q0 -75 44.5 -121.5t117.5 -46.5q94 0 158.5 68.5t64.5 168.5q0 76 -41.5 123 t-113.5 47q-97 0 -163.5 -69.5t-66.5 -169.5zM944 266q0 161 114.5 274t276.5 113q128 0 205.5 -79t77.5 -201q0 -159 -116 -271t-277 -112q-128 0 -204.5 76.5t-76.5 199.5zM1087 289q0 -75 44 -122.5t116 -47.5q95 0 160.5 68.5t65.5 166.5q0 74 -43 123t-115 49 q-95 0 -161.5 -70t-66.5 -167z" />
<glyph unicode="&#x26;" horiz-adv-x="1443" d="M109 332q0 174 105 301.5t310 220.5q-104 145 -104 270q0 151 112.5 256t280.5 105q127 0 205 -69t78 -185q0 -135 -86 -232.5t-246 -173.5l137 -207l273 207l81 -116l-282 -213l270 -400l-143 -114l-133 196q-116 -109 -230 -161t-248 -52q-174 0 -277 101t-103 266z M285 367q0 -106 67.5 -176t184.5 -70q173 0 354 178l-289 451q-317 -129 -317 -383zM586 1153q0 -104 96 -229q256 113 256 282q0 60 -41 98.5t-109 38.5q-87 0 -144.5 -55.5t-57.5 -134.5z" />
<glyph unicode="'" horiz-adv-x="452" d="M184 903v572h170v-572h-170z" />
<glyph unicode="(" horiz-adv-x="706" d="M111 428q0 579 499 1075l111 -67q-237 -264 -338.5 -497.5t-101.5 -512.5q0 -326 174 -614l-119 -76q-108 125 -166.5 307t-58.5 385z" />
<glyph unicode=")" horiz-adv-x="704" d="M-14 -197q237 264 338.5 497.5t101.5 512.5q0 326 -174 614l119 76q108 -125 166.5 -307t58.5 -385q0 -578 -500 -1075z" />
<glyph unicode="*" horiz-adv-x="903" d="M199 1210l32 90l224 -55l22 230h96l23 -228l229 56l31 -93l-215 -84l137 -208l-78 -56l-176 193l-178 -193l-84 53l141 211z" />
<glyph unicode="+" horiz-adv-x="1228" d="M78 541v133h465v469h139v-469h467v-133h-467v-469h-139v469h-465z" />
<glyph unicode="," horiz-adv-x="462" d="M-43 -197q140 58 170 172q-54 -7 -85.5 18.5t-31.5 72.5q0 62 42 99.5t106 37.5q57 0 84.5 -35.5t27.5 -93.5q0 -113 -78.5 -209t-216.5 -141z" />
<glyph unicode="-" horiz-adv-x="665" d="M41 469l31 178h534l-31 -178h-534z" />
<glyph unicode="." horiz-adv-x="491" d="M45 94q0 60 37 93.5t98 33.5q58 0 94.5 -33t36.5 -90q0 -56 -36.5 -89.5t-94.5 -33.5q-61 0 -98 32.5t-37 86.5z" />
<glyph unicode="/" horiz-adv-x="745" d="M-90 -188l770 1701h154l-775 -1701h-149z" />
<glyph unicode="0" horiz-adv-x="1204" d="M104 457q0 105 23 266q116 752 608 752q191 0 288 -117t97 -363q0 -110 -22 -264q-114 -756 -602 -756q-392 0 -392 482zM283 471q0 -338 231 -338q154 0 252.5 142t148.5 452q25 156 25 258q0 168 -58 246t-175 78q-154 0 -253 -139.5t-149 -446.5q-22 -132 -22 -252z " />
<glyph unicode="1" horiz-adv-x="933" d="M25 0l24 152h311l177 1048q-174 -100 -355 -129l-4 133q111 29 235 96.5t212 151.5h127l-220 -1300h275l-25 -152h-757z" />
<glyph unicode="2" horiz-adv-x="1024" d="M-29 0l21 123l633 663q104 110 143 179.5t39 150.5q0 88 -56.5 140.5t-156.5 52.5q-154 0 -358 -160l-76 121q238 205 489 205q146 0 243 -83.5t97 -228.5q0 -49 -2 -76t-13.5 -70.5t-34.5 -82.5t-66.5 -95t-108.5 -124l-535 -555h609l-27 -160h-840z" />
<glyph unicode="3" horiz-adv-x="1046" d="M-37 172l105 113q72 -75 151.5 -114.5t183.5 -39.5q143 0 239.5 82t96.5 233q0 223 -270 226q-71 0 -107 -6l21 151q155 3 277 96t122 226q0 85 -55 130.5t-145 45.5q-147 0 -320 -103l-51 121q206 142 422 142q148 0 236.5 -77.5t88.5 -213.5q0 -139 -91.5 -252.5 t-235.5 -165.5q141 -12 209.5 -93t68.5 -210q0 -114 -43.5 -208.5t-116.5 -154.5t-167 -92.5t-197 -32.5q-277 0 -422 197z" />
<glyph unicode="4" horiz-adv-x="1099" d="M16 336l25 145l754 971h235l-162 -958h162l-26 -158h-162l-56 -336h-174l56 336h-652zM227 494h467l131 778z" />
<glyph unicode="5" horiz-adv-x="1069" d="M-6 115l90 127q142 -107 317 -107q167 0 268 105t101 292q0 108 -54 168t-165 60q-75 0 -143 -32t-109 -73l-31 -123h-157l223 920h690l-39 -170h-532l-117 -475q127 106 299 106q156 0 237.5 -90.5t81.5 -251.5q0 -137 -45 -250t-122.5 -188.5t-181.5 -116.5t-222 -41 q-103 0 -207 35t-182 105z" />
<glyph unicode="6" horiz-adv-x="1093" d="M86 444q0 82 12 174q28 222 90 388.5t150.5 268t194 151t229.5 49.5q189 0 305 -119l-94 -121q-104 86 -230 86q-77 0 -143 -31.5t-114.5 -83.5t-88 -127t-66 -155t-46.5 -174q179 155 370 155q158 0 238 -94.5t80 -257.5q0 -45 -6 -94q-16 -127 -61 -221.5t-113 -151.5 t-151 -84t-183 -27q-189 0 -281 121.5t-92 347.5zM252 436q0 -164 58 -238.5t173 -74.5q114 0 200.5 80.5t111.5 240.5q6 44 6 80q0 115 -56.5 170.5t-152.5 55.5q-150 0 -330 -156q-10 -74 -10 -158z" />
<glyph unicode="7" horiz-adv-x="905" d="M68 0l4 23l710 1259h-635l29 170h840l-21 -123l-743 -1329h-184z" />
<glyph unicode="8" horiz-adv-x="1073" d="M25 301q0 86 33 164.5t88.5 138t121 104t138.5 74.5q-88 39 -138.5 112t-50.5 171q0 181 132 295.5t333 114.5q156 0 249 -75.5t93 -205.5t-85.5 -235t-219.5 -168q235 -117 235 -336q0 -215 -150 -347.5t-386 -132.5q-185 0 -289 86.5t-104 239.5zM207 332 q0 -94 62.5 -148.5t176.5 -54.5q141 0 234.5 84.5t93.5 212.5q0 188 -246 279q-68 -32 -119.5 -64.5t-100.5 -78t-75 -104t-26 -126.5zM395 1098q0 -84 55 -144t142 -96q62 28 118.5 69t101 106t44.5 134q0 79 -53 121.5t-146 42.5q-116 0 -189 -64.5t-73 -168.5z" />
<glyph unicode="9" horiz-adv-x="1077" d="M37 86l90 123q113 -88 242 -88q88 0 165.5 47.5t134.5 129.5t96.5 184.5t59.5 217.5q-79 -75 -180 -116t-205 -41q-153 0 -232 100.5t-79 259.5q0 256 148 414t374 158q183 0 276 -124t93 -345q0 -294 -78 -527t-227 -368.5t-344 -135.5q-205 0 -334 111zM301 932 q0 -119 53 -179.5t144 -60.5q92 0 187.5 49.5t150.5 118.5q8 63 8 133q0 158 -55.5 241t-163.5 83q-133 0 -228.5 -102t-95.5 -283z" />
<glyph unicode=":" horiz-adv-x="491" d="M41 94q0 60 37 93.5t98 33.5q58 0 94.5 -33t36.5 -90q0 -56 -36.5 -89.5t-94.5 -33.5q-61 0 -98 32.5t-37 86.5zM176 905q0 60 37 93.5t98 33.5q58 0 94.5 -33t36.5 -90q0 -56 -36.5 -89.5t-94.5 -33.5q-61 0 -98 32.5t-37 86.5z" />
<glyph unicode=";" horiz-adv-x="475" d="M-43 -197q140 58 170 172q-54 -7 -85.5 18.5t-31.5 72.5q0 62 42 99.5t106 37.5q57 0 84.5 -35.5t27.5 -93.5q0 -113 -78.5 -209t-216.5 -141zM162 905q0 60 37 93.5t98 33.5q58 0 94.5 -33t36.5 -90q0 -56 -36.5 -89.5t-94.5 -33.5q-61 0 -98 32.5t-37 86.5z" />
<glyph unicode="&#x3c;" horiz-adv-x="1228" d="M43 557v92l1104 457l51 -133l-919 -369l921 -366l-53 -136z" />
<glyph unicode="=" horiz-adv-x="1228" d="M82 356v125h1065v-125h-1065zM82 692v125h1065v-125h-1065z" />
<glyph unicode="&#x3e;" horiz-adv-x="1228" d="M31 244l917 368l-917 369l53 131l1102 -455v-92l-1104 -454z" />
<glyph unicode="?" horiz-adv-x="1056" d="M176 1055q36 215 171 329.5t343 114.5q167 0 264 -79t97 -226q0 -74 -24 -139.5t-62.5 -115t-86 -95t-97 -88.5t-92 -86t-74.5 -97.5t-42 -113.5l-6 -45h-159l8 57q12 69 43 130.5t71 107t86 87.5t89 81t78.5 79.5t57 92t21.5 108.5q0 180 -211 180q-126 0 -206 -73 t-103 -209h-166zM301 76q0 66 43.5 105.5t110.5 39.5q52 0 81 -26.5t29 -75.5q0 -64 -43 -104t-108 -40q-53 0 -83 27.5t-30 73.5z" />
<glyph unicode="@" horiz-adv-x="2019" d="M115 383q0 207 73 384t200 300t305 192.5t382 69.5q370 0 581.5 -187.5t211.5 -504.5q0 -181 -63 -327t-181 -232t-270 -86q-116 0 -172.5 49.5t-51.5 138.5q-130 -184 -303 -184q-139 0 -211.5 88t-72.5 231q0 108 35 205t100.5 172t168 119.5t228.5 44.5q85 0 166 -21 t139 -57l-114 -461q-11 -50 -11 -77q0 -59 23.5 -90t85.5 -31q84 0 152.5 43.5t110.5 116t64.5 161.5t22.5 185q0 142 -46 250.5t-131.5 177.5t-203 104t-264.5 35q-235 0 -417 -102.5t-282 -287t-100 -421.5q0 -163 53.5 -292t150 -212.5t228.5 -127.5t291 -44 q174 0 314.5 43.5t269.5 136.5l70 -104q-134 -105 -305.5 -159t-352.5 -54q-148 0 -279 32.5t-240 99t-188 162.5t-123 229t-44 292zM700 319q0 -194 156 -194q99 0 178 85.5t111 211.5l65 264q-55 39 -166 39q-106 0 -185.5 -56t-119 -147t-39.5 -203z" />
<glyph unicode="A" horiz-adv-x="1302" d="M-68 0l760 1475h199l274 -1475h-196l-76 395h-561l-203 -395h-197zM416 569h456l-116 684z" />
<glyph unicode="B" horiz-adv-x="1271" d="M55 0l246 1475h500q409 0 409 -297q0 -52 -12 -103.5t-38 -100.5t-63.5 -89t-91.5 -68.5t-118 -38.5q-2 -2 -2 -4q74 -8 129.5 -37.5t85.5 -72.5t44.5 -89.5t14.5 -97.5q0 -104 -31.5 -185.5t-87 -135.5t-135.5 -89.5t-171.5 -51t-201.5 -15.5h-477zM270 166h340 q174 0 269.5 85.5t95.5 225.5q0 106 -77 150.5t-218 44.5h-326zM383 840h260q371 0 371 288q0 95 -66 137t-196 42h-291z" />
<glyph unicode="C" horiz-adv-x="1316" d="M109 567q0 149 32.5 287t97.5 255.5t156.5 205t216 137t269.5 49.5q229 -1 345 -121q90 -94 91 -254q0 -46 -8 -98h-183q3 25 3 48q0 100 -53 168q-65 82 -226 83q-163 0 -286.5 -95.5t-189 -261.5t-65.5 -378q0 -219 91.5 -333t256.5 -114q125 0 226 48t207 133l81 -127 q-254 -224 -555 -224q-129 0 -228 44.5t-159 125t-90 187t-30 235.5z" />
<glyph unicode="D" horiz-adv-x="1392" d="M55 0l246 1475h420q297 0 450.5 -145t153.5 -431q0 -454 -218 -676.5t-661 -222.5h-391zM270 170h242q614 0 614 707q0 426 -426 426h-241z" />
<glyph unicode="E" horiz-adv-x="1183" d="M55 0l246 1475h913l-28 -172h-727l-78 -467h661l-28 -172h-662l-82 -494h742l-29 -170h-928z" />
<glyph unicode="F" horiz-adv-x="1091" d="M55 0l246 1475h870l-28 -172h-684l-78 -476h604l-29 -172h-604l-110 -655h-187z" />
<glyph unicode="G" horiz-adv-x="1421" d="M109 565q0 199 53 369t152.5 296.5t252 198.5t340.5 72q96 0 172.5 -17t127.5 -47t87.5 -71.5t52.5 -91t23 -105.5q2 -22 2 -44q0 -35 -6 -70h-190q3 21 3 40q0 95 -61 157q-72 75 -246 75q-107 0 -198.5 -38t-158.5 -106t-114 -160t-70.5 -200.5t-23.5 -226.5 q0 -217 96 -336t281 -119q226 0 397 152l54 313h-332l26 160h494l-94 -559q-232 -232 -572 -232q-144 0 -251.5 44t-171.5 124.5t-94.5 185.5t-30.5 236z" />
<glyph unicode="H" horiz-adv-x="1396" d="M55 0l246 1475h186l-104 -625h709l104 625h186l-245 -1475h-187l113 674h-709l-112 -674h-187z" />
<glyph unicode="I" horiz-adv-x="501" d="M55 0l246 1475h186l-245 -1475h-187z" />
<glyph unicode="J" horiz-adv-x="794" d="M-66 29l64 155q90 -43 199 -43q104 0 151 49.5t70 184.5l182 1100h184l-188 -1135q-32 -188 -124 -276.5t-255 -88.5q-178 0 -283 54z" />
<glyph unicode="K" horiz-adv-x="1275" d="M55 0l246 1475h186l-104 -635h256l467 635h205l-525 -709l349 -766h-213l-312 676h-256l-112 -676h-187z" />
<glyph unicode="L" horiz-adv-x="1054" d="M55 0l246 1475h186l-217 -1305h658l-29 -170h-844z" />
<glyph unicode="M" horiz-adv-x="1728" d="M8 0l389 1475h209l201 -1190l606 1190h205l-102 -1475h-175l74 1139l-579 -1139h-150l-199 1139l-303 -1139h-176z" />
<glyph unicode="N" horiz-adv-x="1404" d="M55 0l246 1475h168l553 -1145l186 1145h183l-246 -1475h-162l-557 1143l-188 -1143h-183z" />
<glyph unicode="O" d="M109 555q0 85 16 197q29 184 101.5 328t178 235.5t234.5 138.5t276 47q254 0 399.5 -151t145.5 -426q0 -65 -14 -172q-25 -163 -78 -294t-126 -220.5t-165.5 -149t-194.5 -86.5t-216 -27q-260 0 -408.5 146.5t-148.5 433.5zM307 561q0 -210 99.5 -315t279.5 -105 q458 0 563 596q13 74 13 174q0 199 -101 307.5t-276 108.5q-217 0 -366 -145.5t-193 -415.5q-19 -125 -19 -205z" />
<glyph unicode="P" horiz-adv-x="1200" d="M55 0l246 1475h469q211 0 317.5 -95t106.5 -268q0 -120 -36.5 -218.5t-109 -172t-187.5 -114t-265 -40.5h-260l-94 -567h-187zM362 727h256q195 0 292.5 93t97.5 263q0 226 -277 226h-270z" />
<glyph unicode="Q" d="M109 555q0 85 16 197q29 184 101.5 328t178 235.5t234.5 138.5t276 47q254 0 399.5 -151t145.5 -426q0 -65 -14 -172q-40 -265 -146.5 -427t-275.5 -245l-2 -8l270 -101l-94 -164l-446 177q-40 -9 -86 -9q-260 0 -408.5 146.5t-148.5 433.5zM307 561q0 -210 99.5 -315 t279.5 -105q458 0 563 596q13 74 13 174q0 199 -101 307.5t-276 108.5q-217 0 -366 -145.5t-193 -415.5q-19 -125 -19 -205z" />
<glyph unicode="R" horiz-adv-x="1265" d="M55 0l246 1475h467q218 0 327 -96t109 -265q0 -335 -313 -481l213 -633h-205l-194 586q-76 -13 -150 -13h-217l-96 -573h-187zM365 733h260q195 0 291 92t96 262q0 222 -277 222h-274z" />
<glyph unicode="S" horiz-adv-x="1163" d="M-4 203l123 123q178 -191 379 -191q150 0 246 79t96 220q0 86 -63 140.5t-222 107.5q-193 64 -279 148t-86 214q0 149 72.5 254t191 154t271.5 49q140 0 253 -53.5t187 -157.5l-121 -116q-63 82 -150.5 124.5t-182.5 42.5q-146 0 -235 -65t-89 -182q0 -43 14 -76.5 t35.5 -57.5t66 -48t84 -40.5t111.5 -42.5q181 -65 261.5 -148.5t80.5 -223.5q0 -214 -155.5 -348t-401.5 -134q-155 0 -282.5 61.5t-204.5 166.5z" />
<glyph unicode="T" horiz-adv-x="1150" d="M152 1303l28 172h1077l-28 -172h-445l-217 -1303h-186l217 1303h-446z" />
<glyph unicode="U" horiz-adv-x="1378" d="M137 549l154 926h184l-151 -910q-10 -64 -11 -119q0 -124 54 -197q77 -106 249 -106q187 0 287 105t135 317l152 910h184l-153 -926q-47 -284 -209.5 -429t-429.5 -145q-254 0 -374 143q-85 102 -85 278q0 70 14 153z" />
<glyph unicode="V" horiz-adv-x="1208" d="M176 1475h191l170 -1260l598 1260h186l-713 -1475h-217z" />
<glyph unicode="W" horiz-adv-x="1845" d="M176 1475h186l105 -1233l512 1233h176l102 -1233l510 1233h189l-625 -1475h-205l-108 1192l-500 -1192h-211z" />
<glyph unicode="X" horiz-adv-x="1187" d="M-70 0l576 754l-318 721h205l250 -578l438 578h209l-569 -736l326 -739h-213l-248 584l-443 -584h-213z" />
<glyph unicode="Y" horiz-adv-x="1169" d="M164 1475h203l243 -670l465 670h207l-614 -859l-103 -616h-186l102 616z" />
<glyph unicode="Z" horiz-adv-x="1179" d="M-31 0l21 125l962 1178h-714l28 172h987l-12 -84l-1001 -1221h794l-28 -170h-1037z" />
<glyph unicode="[" horiz-adv-x="690" d="M29 -256l288 1731h385l-22 -146h-215l-242 -1440h215l-24 -145h-385z" />
<glyph unicode="\" horiz-adv-x="819" d="M113 1513h153l486 -1701h-150z" />
<glyph unicode="]" horiz-adv-x="692" d="M-16 -256l24 145h217l242 1440h-217l22 146h387l-288 -1731h-387z" />
<glyph unicode="^" horiz-adv-x="1384" d="M211 924l549 495h133l381 -504l-109 -81l-358 458l-514 -458z" />
<glyph unicode="_" horiz-adv-x="983" d="M-184 -463l22 133h989l-22 -133h-989z" />
<glyph unicode="`" horiz-adv-x="997" d="M311 1446l131 131l240 -281l-102 -102z" />
<glyph unicode="a" horiz-adv-x="1193" d="M66 395q0 314 152 510.5t392 196.5q109 0 187.5 -49.5t122.5 -132.5l36 155h154l-180 -1075h-154l12 145q-62 -67 -157 -118.5t-215 -51.5q-175 0 -262.5 111.5t-87.5 308.5zM256 436q0 -50 5 -91t19.5 -80.5t37.5 -66t61.5 -43t89.5 -16.5q92 0 181 51.5t155 118.5 l76 445q-107 182 -279 182q-150 0 -248 -136.5t-98 -363.5z" />
<glyph unicode="b" horiz-adv-x="1202" d="M45 0l246 1475h176l-90 -547q165 172 371 172q166 0 254 -111t88 -311q0 -148 -34 -273.5t-101 -222.5t-176 -152t-249 -55q-117 0 -193.5 51.5t-109.5 116.5l-37 -143h-145zM270 295q30 -63 103 -110.5t170 -47.5q161 0 259.5 135.5t98.5 372.5q0 142 -56 217.5 t-161 75.5q-162 0 -336 -178z" />
<glyph unicode="c" horiz-adv-x="1056" d="M74 432q0 155 45 282.5t124 211t185 129t229 45.5q195 0 281 -104q68 -81 68 -218q0 -38 -5 -80h-165q1 18 1 35q0 99 -40 149q-47 58 -156 58q-169 0 -274 -133.5t-105 -357.5q0 -144 63.5 -231t188.5 -87q87 0 161 26.5t173 88.5l57 -123q-193 -148 -436 -148 q-185 0 -290 122t-105 335z" />
<glyph unicode="d" horiz-adv-x="1193" d="M74 395q0 208 68.5 368.5t192.5 248.5t283 88q195 0 302 -160l88 535h176l-246 -1475h-154l13 145q-62 -67 -157.5 -118.5t-215.5 -51.5q-175 0 -262.5 111.5t-87.5 308.5zM264 436q0 -50 5 -91t19.5 -80.5t37.5 -66t61.5 -43t89.5 -16.5q92 0 181 51.5t155 118.5l76 445 q-106 180 -279 180q-150 0 -248 -135t-98 -363z" />
<glyph unicode="e" horiz-adv-x="1085" d="M72 408q0 305 166 498.5t426 193.5q163 0 248 -83.5t85 -213.5q0 -128 -68 -209.5t-233.5 -130t-445.5 -60.5q0 -38 6.5 -73t25 -72.5t47.5 -65t77.5 -45.5t111.5 -18q156 0 332 111l57 -121q-194 -144 -430 -144q-194 0 -299.5 110t-105.5 323zM258 541q122 7 215 19.5 t154 32t101 41t60 50.5t27.5 56t7.5 63q0 69 -47 108t-135 39q-152 0 -256 -117.5t-127 -291.5z" />
<glyph unicode="f" horiz-adv-x="577" d="M86 0l156 930h-125l18 112l129 25l25 141q21 134 96.5 213.5t204.5 79.5q68 0 139 -18l-33 -137q-44 14 -92 14q-51 0 -89.5 -33.5t-49.5 -107.5l-25 -144h193l-25 -145h-192l-156 -930h-174z" />
<glyph unicode="g" horiz-adv-x="1189" d="M53 -362l62 149q156 -59 313 -59q117 0 187.5 35t106 101.5t54.5 182.5l17 100q-72 -75 -167.5 -120t-205.5 -45q-174 0 -260 112t-86 305q0 110 21.5 212t66.5 191t109 155.5t155 104.5t199 38q58 0 109.5 -17t88.5 -45.5t62.5 -57t44.5 -60.5l37 155h151l-174 -1038 q-22 -133 -64 -223.5t-109.5 -144t-154 -76.5t-206.5 -23q-100 0 -196 19.5t-161 48.5zM262 432q0 -141 47 -216t162 -75q95 0 184 47t156 107l78 467q-29 62 -99.5 118t-160.5 56q-175 0 -271 -140t-96 -364z" />
<glyph unicode="h" horiz-adv-x="1138" d="M45 0l246 1475h176l-90 -549q178 174 371 174q162 0 224 -102q42 -68 42 -176q0 -54 -10 -117l-119 -705h-178l110 662q8 47 11 83q1 13 1 26q1 23 -3 47q-6 38 -22.5 61.5t-50 39t-83.5 15.5q-85 0 -172 -50.5t-148 -111.5l-129 -772h-176z" />
<glyph unicode="i" horiz-adv-x="493" d="M57 0l181 1075h176l-181 -1075h-176zM258 1350q0 54 40 87t95 33q44 0 70 -24.5t26 -65.5q0 -53 -37 -84.5t-94 -31.5q-44 0 -72 23.5t-28 62.5z" />
<glyph unicode="j" horiz-adv-x="491" d="M-221 -395l37 137q34 -12 88 -12q57 0 88 29.5t45 115.5l201 1200h174l-203 -1214q-25 -139 -90 -208t-195 -69q-91 0 -145 21zM258 1350q0 53 39.5 86.5t95.5 33.5q44 0 70 -24.5t26 -65.5q0 -53 -37 -84.5t-94 -31.5q-45 0 -72.5 23.5t-27.5 62.5z" />
<glyph unicode="k" horiz-adv-x="1044" d="M45 0l246 1475h176l-133 -801h117l389 401h202l-458 -475l327 -600h-209l-286 522h-107l-88 -522h-176z" />
<glyph unicode="l" horiz-adv-x="475" d="M47 0l246 1475h176l-246 -1475h-176z" />
<glyph unicode="m" horiz-adv-x="1669" d="M45 0l180 1075h152l-15 -155q172 180 357 180q201 0 225 -178q86 83 175 130.5t194 47.5q80 0 132 -27.5t73 -75.5q21 -49 26 -113q1 -16 1 -32q0 -50 -11 -107l-125 -745h-176l119 715q7 45 7 80q-1 51 -15 83q-26 56 -111 56q-124 0 -285 -154l-131 -780h-176l119 709 q8 51 8 91q0 15 -1 28q-4 50 -34 78t-88 28q-131 0 -295 -158l-129 -776h-176z" />
<glyph unicode="n" horiz-adv-x="1138" d="M45 0l180 1075h152l-15 -157q81 82 178.5 132t200.5 50q274 0 274 -275q0 -55 -11 -120l-119 -705h-178l110 659q9 54 9 98q0 179 -152 179q-64 0 -135.5 -32.5t-114.5 -66t-74 -65.5l-129 -772h-176z" />
<glyph unicode="o" horiz-adv-x="1175" d="M66 399q0 55 10 133q39 273 199.5 420.5t388.5 147.5q192 0 298.5 -112t106.5 -316q0 -76 -10 -135q-22 -142 -76 -250.5t-132 -176t-173.5 -101.5t-206.5 -34q-196 0 -300.5 110t-104.5 314zM254 412q0 -277 246 -277q136 0 237 101t133 299q11 75 11 116 q0 144 -68 216.5t-182 72.5q-135 0 -234 -101t-133 -298q-10 -75 -10 -129z" />
<glyph unicode="p" horiz-adv-x="1202" d="M-23 -410l248 1485h152l-12 -157q179 182 387 182q165 0 251.5 -110.5t86.5 -309.5q0 -200 -60 -357t-185 -252.5t-300 -95.5q-63 0 -117 15.5t-90 41t-58.5 48.5t-37.5 47l-88 -537h-177zM270 293q30 -57 100.5 -105.5t159.5 -48.5q169 0 269 134t100 376q0 139 -53 214 t-154 75q-91 0 -181.5 -52t-162.5 -124z" />
<glyph unicode="q" horiz-adv-x="1189" d="M74 395q0 315 152.5 510t398.5 195q190 0 307 -174l45 149h141l-248 -1485h-178l90 539q-166 -154 -352 -154q-179 0 -267.5 111.5t-88.5 308.5zM264 438q0 -64 8.5 -114t29.5 -94t60.5 -67.5t96.5 -23.5q108 0 201 47t151 105l80 475q-16 28 -37 53t-54 54t-80.5 46 t-101.5 17q-151 0 -252.5 -135.5t-101.5 -362.5z" />
<glyph unicode="r" horiz-adv-x="671" d="M45 0l180 1075h146l-17 -164q54 83 126 136t145 53q43 0 94 -19l-47 -176q-33 13 -88 13q-63 0 -129 -53.5t-109 -121.5l-125 -743h-176z" />
<glyph unicode="s" horiz-adv-x="983" d="M-18 150l102 114q66 -63 146.5 -100t160.5 -37q117 0 184.5 50t67.5 138q0 59 -46 92t-169 66q-153 40 -222 102t-69 164q0 163 122 262t314 99q227 0 359 -160l-101 -109q-117 123 -276 123q-106 0 -167.5 -46.5t-61.5 -125.5q0 -60 48.5 -91.5t176.5 -67.5 q151 -42 220 -104t69 -163q0 -173 -128 -277t-333 -104q-126 0 -229.5 48.5t-167.5 126.5z" />
<glyph unicode="t" horiz-adv-x="612" d="M104 928l19 112l141 33l70 299h149l-49 -297h170l-24 -147h-170l-119 -711q-3 -18 -3 -32q0 -25 11 -39q17 -20 55 -21q46 0 99 18l-2 -133q-87 -35 -189 -35q-154 0 -154 149q0 28 5 60l125 744h-134z" />
<glyph unicode="u" horiz-adv-x="1118" d="M96 354l121 721h178l-114 -678q-11 -70 -10 -121q-1 -10 -1 -20q2 -58 37 -87.5t109 -29.5q87 0 174 46t153 112l131 778h175l-181 -1075h-147l12 156q-177 -181 -364 -181q-283 0 -283 267q0 51 10 112z" />
<glyph unicode="v" horiz-adv-x="997" d="M113 1075h182l133 -895l438 895h174l-542 -1075h-207z" />
<glyph unicode="w" horiz-adv-x="1486" d="M131 1075h176l47 -864l377 856h170l105 -856l327 864h176l-444 -1075h-188l-103 823l-368 -823h-191z" />
<glyph unicode="x" horiz-adv-x="1005" d="M-63 0l448 545l-260 530h194l191 -409l328 409h190l-432 -530l266 -545h-192l-199 426l-344 -426h-190z" />
<glyph unicode="y" horiz-adv-x="991" d="M-121 -389l41 129q72 -16 137 -16q66 0 113.5 45t108.5 174l28 57l-190 1075h186l123 -860l416 860h188l-557 -1089q-104 -201 -149 -263q-70 -97 -159 -123q-47 -14 -110 -14q-85 0 -176 25z" />
<glyph unicode="z" horiz-adv-x="899" d="M-23 0l19 115l657 813h-508l25 147h737l-14 -86l-680 -846h535l-25 -143h-746z" />
<glyph unicode="{" horiz-adv-x="743" d="M51 506l25 147h57q97 0 139 55t66 197l33 199q35 203 118 287t269 84h78l-23 -142h-82q-87 0 -127.5 -57t-62.5 -184l-43 -263q-17 -104 -60 -163t-145 -84q69 -13 100 -53t28.5 -99.5t-13.5 -136.5l-33 -191q-20 -116 5.5 -166.5t123.5 -50.5h67l-24 -141h-76 q-126 0 -190.5 29.5t-85 100t1.5 187.5l41 240q18 107 -8 156t-117 49h-62z" />
<glyph unicode="|" horiz-adv-x="1024" d="M434 -410v1885h156v-1885h-156z" />
<glyph unicode="}" horiz-adv-x="727" d="M-92 -256l24 141h68q98 0 138.5 50.5t56.5 166.5l32 191q10 55 17.5 87t23 71.5t35.5 62t53.5 41.5t79.5 27q-92 25 -115 84t-4 163l41 263q23 120 0.5 180.5t-108.5 60.5h-82l20 142h80q185 0 241 -84.5t23 -286.5l-30 -199q-27 -135 -2 -193.5t121 -58.5h57l-23 -147 h-63q-90 0 -132.5 -49.5t-58.5 -155.5l-41 -240q-28 -178 -109 -247.5t-267 -69.5h-76z" />
<glyph unicode="~" horiz-adv-x="1558" d="M74 520q260 191 463 191q60 0 131 -23.5t124.5 -51.5t119 -51.5t116.5 -23.5q85 0 170 36.5t197 111.5l73 -129q-255 -201 -460 -201q-67 0 -140.5 22.5t-127 50t-121 50t-125.5 22.5q-93 0 -168.5 -34t-184.5 -107z" />
<glyph unicode="&#xa1;" horiz-adv-x="624" d="M33 -401l82 491l112 569h146l-74 -569l-82 -491h-184zM223 954q0 63 43.5 103.5t106.5 40.5q53 0 82.5 -27.5t29.5 -73.5q0 -66 -43 -105.5t-110 -39.5q-50 0 -79.5 26.5t-29.5 75.5z" />
<glyph unicode="&#xa2;" horiz-adv-x="1048" d="M119 610q0 143 41 264t112.5 205t168 135t208.5 62l33 199h156l-33 -207q134 -28 196 -128t43 -261h-159q17 237 -201 237q-171 0 -274 -128.5t-103 -350.5q0 -142 64.5 -230t189.5 -88q90 0 164 25.5t162 83.5l51 -119q-150 -117 -317 -141l-35 -205h-158l33 199 q-161 15 -251.5 134.5t-90.5 313.5z" />
<glyph unicode="&#xa3;" horiz-adv-x="1030" d="M-16 0l24 145l103 11q86 82 140 165t54 173q0 66 -20 159h-189l23 133h139q-49 145 -49 252q0 126 69 227.5t181 155.5t241 54q120 0 217.5 -45t153.5 -132l-115 -108q-99 127 -266 127q-136 0 -217.5 -71t-81.5 -193q0 -99 51 -267h312l-23 -133h-272q16 -56 16 -143 q0 -102 -49.5 -182.5t-136.5 -167.5h573l-26 -160h-852z" />
<glyph unicode="&#xa4;" horiz-adv-x="1155" d="M16 260l222 193q-48 73 -48 180q0 157 125 289l-155 194l94 86l156 -194q116 79 245 79q135 0 215 -77l222 190l67 -84l-221 -194q47 -74 47 -183q0 -153 -125 -288l158 -191l-98 -84l-156 193q-116 -80 -242 -80q-129 0 -219 80q-175 -156 -221 -193zM311 647 q0 -102 64.5 -169.5t165.5 -67.5q126 0 222.5 95.5t96.5 223.5q0 102 -63 169t-162 67q-127 0 -225.5 -93.5t-98.5 -224.5z" />
<glyph unicode="&#xa5;" horiz-adv-x="1148" d="M55 358l23 134h391l29 172h-392l23 133h334l-256 655h190l217 -602l428 602h183l-482 -655h344l-22 -133h-401l-29 -172h401l-22 -134h-402l-59 -358h-166l59 358h-391z" />
<glyph unicode="&#xa6;" horiz-adv-x="1024" d="M434 -410v836h156v-836h-156zM434 639v836h156v-836h-156z" />
<glyph unicode="&#xa7;" horiz-adv-x="1046" d="M72 139l98 99q129 -129 287 -129q91 0 150 40.5t59 120.5q0 24 -12 45t-28 34.5t-47 28.5t-53 22.5t-63 21.5q-38 12 -58.5 19t-55 21.5t-54.5 26.5t-45 32t-38 41t-22.5 50t-9.5 62q0 103 71 180.5t210 108.5q-98 32 -143.5 89t-45.5 126q0 64 25 121t73.5 102.5 t128.5 72.5t181 27q106 0 190 -39.5t138 -101.5l-95 -94q-129 106 -251 106q-55 0 -100.5 -15.5t-78 -54t-32.5 -94.5q0 -55 38 -90t123 -65q175 -60 244.5 -117t69.5 -141q0 -61 -24.5 -111.5t-66 -84.5t-85.5 -56t-93 -37q94 -39 136.5 -89.5t42.5 -119.5 q0 -138 -116 -230t-286 -92q-107 0 -206 43.5t-156 120.5zM344 719q0 -30 17 -54.5t48.5 -42.5t63.5 -29.5t76 -23.5q207 68 207 191q0 24 -12 43.5t-26 31.5t-47 26t-51.5 20t-64.5 20q-39 -8 -74 -22t-67 -35.5t-51 -53.5t-19 -71z" />
<glyph unicode="&#xa8;" horiz-adv-x="999" d="M160 1352q0 47 36.5 80.5t88.5 33.5q43 0 66.5 -23t23.5 -61q0 -47 -35.5 -80.5t-85.5 -33.5q-44 0 -69 23.5t-25 60.5zM555 1352q0 48 36.5 81t90.5 33q43 0 66.5 -23t23.5 -61q0 -47 -36 -80.5t-87 -33.5q-44 0 -69 23.5t-25 60.5z" />
<glyph unicode="&#xa9;" horiz-adv-x="1679" d="M113 737q0 210 98 379.5t266.5 264t372.5 94.5q215 0 383 -92.5t261 -258.5t93 -379q0 -157 -60.5 -297t-161 -237.5t-235.5 -154t-280 -56.5q-150 0 -282 47.5t-234 137t-161.5 232t-59.5 320.5zM211 737q0 -156 51 -281t139 -204t203 -120.5t246 -41.5q123 0 240 49.5 t206 134t143 206.5t54 257q0 141 -48.5 262.5t-133.5 206t-204 132.5t-257 48q-182 0 -328.5 -85t-228.5 -233.5t-82 -330.5zM512 741q0 175 91 289.5t255 114.5q124 0 202 -68.5t81 -195.5h-101q-17 170 -186 170q-110 0 -169.5 -83t-59.5 -223q0 -156 61.5 -233.5 t171.5 -77.5q125 0 232 96l53 -65q-121 -127 -295 -127q-111 0 -188 54.5t-112.5 143.5t-35.5 205z" />
<glyph unicode="&#xaa;" horiz-adv-x="968" d="M150 823q0 232 112 375t291 143q153 0 219 -112l23 96h127l-131 -790h-127l8 92q-45 -45 -112 -78t-148 -33q-130 0 -196 82t-66 225zM303 856q0 -91 38.5 -150t123.5 -59q100 0 219 119l55 321q-75 121 -194 121q-104 0 -173 -96t-69 -256z" />
<glyph unicode="&#xab;" horiz-adv-x="968" d="M88 502l12 71l353 293l84 -92l-252 -237l172 -240l-113 -92zM520 502l12 71l353 293l84 -92l-252 -237l172 -240l-113 -92z" />
<glyph unicode="&#xac;" horiz-adv-x="1228" d="M66 668v127h1097v-539h-129v412h-968z" />
<glyph unicode="&#xad;" horiz-adv-x="665" d="M31 469l30 178h535l-31 -178h-534z" />
<glyph unicode="&#xae;" horiz-adv-x="862" d="M145 1122q0 156 104 259.5t257 103.5q162 0 262 -100.5t100 -262.5q0 -153 -107 -257.5t-255 -104.5q-161 0 -261 96.5t-100 265.5zM217 1122q0 -140 80 -216.5t209 -76.5q116 0 202.5 85.5t86.5 207.5q0 132 -80 212.5t-209 80.5q-124 0 -206.5 -83t-82.5 -210zM375 944 v361h141q133 0 133 -113q0 -66 -65 -98l84 -150h-66l-76 137q-10 -2 -37 -2h-55v-135h-59zM434 1126h66q44 0 65 16t21 52q0 59 -82 59h-70v-127z" />
<glyph unicode="&#xaf;" horiz-adv-x="997" d="M250 1262l22 137h551l-22 -137h-551z" />
<glyph unicode="&#xb0;" horiz-adv-x="643" d="M150 1352q0 99 70.5 168t170.5 69q98 0 168 -69t70 -168q0 -101 -69.5 -169.5t-168.5 -68.5q-103 0 -172 68t-69 170zM236 1354q0 -71 44 -116.5t111 -45.5q66 0 110 46.5t44 115.5q0 67 -43 110t-111 43q-69 0 -112 -42.5t-43 -110.5z" />
<glyph unicode="&#xb1;" horiz-adv-x="1228" d="M78 541v133h465v469h139v-469h467v-133h-467v-408h465v-133h-1065v133h461v408h-465z" />
<glyph unicode="&#xb2;" horiz-adv-x="628" d="M76 819l16 101l314 282q7 6 23 20.5t21.5 19.5t18.5 17t17 17.5t13.5 15.5t12.5 16.5t8 16.5t7 18.5t3.5 19t1.5 21.5q0 78 -100 78q-92 0 -225 -88l-41 92q159 125 319 125q96 0 150.5 -45.5t54.5 -126.5q0 -69 -37.5 -129.5t-117.5 -130.5l-250 -217h336l-21 -123h-524 z" />
<glyph unicode="&#xb3;" horiz-adv-x="651" d="M72 907l78 94q45 -36 89 -54.5t105 -18.5q84 0 127 36t43 97q0 45 -35 65.5t-114 20.5q-54 0 -70 -4l22 125q211 3 211 135q0 65 -104 65q-92 0 -186 -51l-29 99q128 75 268 75q98 0 151.5 -39.5t53.5 -115.5q0 -77 -49.5 -135t-132.5 -82q85 -7 124.5 -48.5t39.5 -107.5 q0 -121 -91.5 -189.5t-232.5 -68.5q-179 0 -268 102z" />
<glyph unicode="&#xb4;" horiz-adv-x="997" d="M328 1296l336 281l84 -131l-351 -252z" />
<glyph unicode="&#xb5;" horiz-adv-x="1177" d="M156 -410v1485h178v-672q0 -141 57.5 -211.5t177.5 -70.5q57 0 103.5 20t76.5 52.5t49 69.5t27 77v735h181v-1075h-164v152q-87 -170 -277 -170q-82 0 -136 27.5t-95 84.5v-504h-178z" />
<glyph unicode="&#xb6;" horiz-adv-x="1095" d="M162 1040q0 191 134.5 313t340.5 122h444l-245 -1475h-156l227 1362h-172l-227 -1362h-154l123 739q-154 4 -234.5 84.5t-80.5 216.5z" />
<glyph unicode="&#xb7;" horiz-adv-x="573" d="M154 684q0 60 37 93.5t98 33.5q58 0 94.5 -33t36.5 -90q0 -56 -36.5 -89.5t-94.5 -33.5q-61 0 -98 32.5t-37 86.5z" />
<glyph unicode="&#xb8;" horiz-adv-x="997" d="M147 -401l41 98q62 -25 119 -25q99 0 99 76q0 31 -27.5 42t-85.5 11h-45l82 215h108l-43 -122q154 -8 154 -127q0 -97 -65 -149t-179 -52q-89 0 -158 33z" />
<glyph unicode="&#xb9;" horiz-adv-x="522" d="M180 1354l2 98q68 14 140.5 48t123.5 79h109l-127 -760h-143l94 565q-114 -33 -199 -30z" />
<glyph unicode="&#xba;" horiz-adv-x="962" d="M162 848q0 226 125.5 360.5t316.5 134.5q139 0 221 -87t82 -244q0 -222 -127 -356t-313 -134q-145 0 -225 85.5t-80 240.5zM315 864q0 -103 47 -155t127 -52q113 0 190 87.5t77 250.5q0 106 -47.5 159.5t-126.5 53.5q-116 0 -191.5 -89t-75.5 -255z" />
<glyph unicode="&#xbb;" horiz-adv-x="972" d="M0 297l252 238l-172 239l113 92l256 -297l-13 -71l-352 -293zM436 297l252 238l-172 239l113 92l256 -297l-13 -71l-352 -293z" />
<glyph unicode="&#xbc;" horiz-adv-x="1693" d="M221 -2l1120 1477h148l-1120 -1477h-148zM244 1251l2 99q68 14 140.5 48t123.5 79h108l-126 -760h-144l94 565q-117 -33 -198 -31zM936 147l18 113l408 500h190l-82 -496h82l-20 -117h-82l-25 -147h-141l25 147h-373zM1096 264h233l60 365z" />
<glyph unicode="&#xbd;" horiz-adv-x="1693" d="M104 -2l1121 1477h147l-1120 -1477h-148zM143 1251l2 99q68 14 141 48.5t124 78.5h108l-127 -760h-143l94 565q-117 -33 -199 -31zM913 0l17 100l313 283q7 7 25.5 23t24 21.5t19.5 18.5t18.5 19t13.5 17t12 18.5t7 19t5.5 22t1.5 23.5q0 78 -100 78q-93 0 -226 -88 l-40 92q159 125 319 125q96 0 150.5 -45.5t54.5 -126.5q0 -68 -37.5 -129t-118.5 -131l-250 -217h336l-20 -123h-525z" />
<glyph unicode="&#xbe;" horiz-adv-x="1693" d="M131 805l78 94q45 -37 89 -55.5t105 -18.5q84 0 127 36t43 97q0 45 -35 65.5t-114 20.5q-54 0 -70 -4l23 125q211 3 211 135q0 66 -105 66q-92 0 -186 -51l-29 98q130 76 269 76q98 0 151 -40t53 -116q0 -77 -49.5 -135t-132.5 -82q164 -14 164 -155q0 -121 -91.5 -190 t-232.5 -69q-178 0 -268 103zM313 -2l1121 1477h147l-1120 -1477h-148zM977 147l18 113l408 500h190l-82 -496h82l-20 -117h-82l-25 -147h-141l25 147h-373zM1137 264h233l60 365z" />
<glyph unicode="&#xbf;" horiz-adv-x="1056" d="M16 -119q0 74 24 139.5t62.5 115t86 95t97 88.5t92 86t74.5 97.5t42 113.5l6 46h159l-8 -58q-12 -69 -43 -130.5t-71 -107t-86 -87.5t-89 -81t-78.5 -79.5t-57 -92t-21.5 -108.5q0 -180 211 -180q126 0 206 73t103 209h166q-36 -215 -171 -329.5t-343 -114.5 q-167 0 -264 79t-97 226zM502 956q0 64 43 104t108 40q53 0 83 -27.5t30 -73.5q0 -66 -43.5 -105.5t-110.5 -39.5q-52 0 -81 26.5t-29 75.5z" />
<glyph unicode="&#xc0;" horiz-adv-x="1302" d="M-68 0l760 1475h199l274 -1475h-196l-76 395h-561l-203 -395h-197zM416 569h456l-116 684zM621 1718l104 156l305 -211l-84 -119z" />
<glyph unicode="&#xc1;" horiz-adv-x="1302" d="M-68 0l760 1475h199l274 -1475h-196l-76 395h-561l-203 -395h-197zM416 569h456l-116 684zM653 1663l375 211l51 -156l-381 -174z" />
<glyph unicode="&#xc2;" horiz-adv-x="1302" d="M-68 0l760 1475h199l274 -1475h-196l-76 395h-561l-203 -395h-197zM416 569h456l-116 684zM537 1634l247 228h125l166 -228l-90 -75l-164 157l-219 -157z" />
<glyph unicode="&#xc3;" horiz-adv-x="1302" d="M-68 0l760 1475h199l274 -1475h-196l-76 395h-561l-203 -395h-197zM416 569h456l-116 684zM494 1630q58 96 100.5 134t95.5 38q48 0 126 -32.5t116 -32.5q31 0 48 13.5t48 57.5l90 -34q-47 -97 -93.5 -137t-109.5 -40q-50 0 -131.5 33t-105.5 33t-43.5 -14.5t-52.5 -57.5 z" />
<glyph unicode="&#xc4;" horiz-adv-x="1302" d="M-68 0l760 1475h199l274 -1475h-196l-76 395h-561l-203 -395h-197zM416 569h456l-116 684zM500 1675q0 47 36.5 81t88.5 34q43 0 66.5 -23t23.5 -61q0 -47 -35.5 -81t-85.5 -34q-44 0 -69 23.5t-25 60.5zM895 1675q0 48 36.5 81.5t90.5 33.5q43 0 66.5 -23t23.5 -61 q0 -47 -36 -81t-87 -34q-44 0 -69 23.5t-25 60.5z" />
<glyph unicode="&#xc5;" horiz-adv-x="1302" d="M-68 0l758 1470q-67 36 -67 127q0 92 66.5 155t158.5 63q73 0 118.5 -42.5t45.5 -111.5q0 -62 -33 -110.5t-88 -77.5l274 -1473h-196l-76 395h-561l-203 -395h-197zM416 569h456l-116 684zM735 1614q0 -30 18.5 -47t51.5 -17q41 0 67.5 27.5t26.5 71.5q0 61 -68 61 q-43 0 -69.5 -26.5t-26.5 -69.5z" />
<glyph unicode="&#xc6;" horiz-adv-x="1972" d="M-72 0l1012 1475h1061l-29 -172h-727l-78 -467h664l-29 -172h-663l-82 -494h743l-28 -170h-930l71 424h-477l-295 -424h-213zM535 588h405l121 725h-33z" />
<glyph unicode="&#xc7;" horiz-adv-x="1316" d="M109 567q0 149 32.5 287t97.5 255.5t156.5 205t216 137t269.5 49.5q230 0 345.5 -120.5t82.5 -352.5h-183q15 134 -50 216.5t-226 82.5q-163 0 -286.5 -95.5t-189 -261.5t-65.5 -378q0 -219 91.5 -333t256.5 -114q125 0 226 48t207 133l81 -127q-238 -208 -514 -222 l-28 -90q153 -8 153 -127q0 -97 -64.5 -148.5t-180.5 -51.5q-89 0 -156 32l41 99q62 -25 119 -25q98 0 98 76q0 31 -27.5 42t-87.5 11h-45l70 182q-112 10 -197 58.5t-137.5 128t-79 181t-26.5 222.5z" />
<glyph unicode="&#xc8;" horiz-adv-x="1183" d="M55 0l246 1475h913l-28 -172h-727l-78 -467h661l-28 -172h-662l-82 -494h742l-29 -170h-928zM522 1718l105 156l305 -211l-84 -119z" />
<glyph unicode="&#xc9;" horiz-adv-x="1183" d="M55 0l246 1475h913l-28 -172h-727l-78 -467h661l-28 -172h-662l-82 -494h742l-29 -170h-928zM612 1663l375 211l51 -156l-381 -174z" />
<glyph unicode="&#xca;" horiz-adv-x="1183" d="M55 0l246 1475h913l-28 -172h-727l-78 -467h661l-28 -172h-662l-82 -494h742l-29 -170h-928zM469 1634l248 228h125l166 -228l-90 -75l-164 157l-219 -157z" />
<glyph unicode="&#xcb;" horiz-adv-x="1183" d="M55 0l246 1475h913l-28 -172h-727l-78 -467h661l-28 -172h-662l-82 -494h742l-29 -170h-928zM422 1675q0 47 36.5 81t88.5 34q43 0 66.5 -23t23.5 -61q0 -47 -35.5 -81t-85.5 -34q-44 0 -69 23.5t-25 60.5zM817 1675q0 48 36.5 81.5t90.5 33.5q43 0 66.5 -23t23.5 -61 q0 -47 -36 -81t-87 -34q-44 0 -69 23.5t-25 60.5z" />
<glyph unicode="&#xcc;" horiz-adv-x="501" d="M55 0l246 1475h186l-245 -1475h-187zM174 1718l105 156l305 -211l-84 -119z" />
<glyph unicode="&#xcd;" horiz-adv-x="501" d="M55 0l246 1475h186l-245 -1475h-187zM207 1663l375 211l51 -156l-381 -174z" />
<glyph unicode="&#xce;" horiz-adv-x="501" d="M55 0l246 1475h186l-245 -1475h-187zM156 1634l247 228h125l166 -228l-90 -75l-164 157l-219 -157z" />
<glyph unicode="&#xcf;" horiz-adv-x="501" d="M55 0l246 1475h186l-245 -1475h-187zM129 1675q0 47 36.5 81t88.5 34q43 0 66.5 -23t23.5 -61q0 -47 -35.5 -81t-85.5 -34q-44 0 -69 23.5t-25 60.5zM524 1675q0 48 36.5 81.5t90.5 33.5q43 0 66.5 -23t23.5 -61q0 -47 -36 -81t-87 -34q-44 0 -69 23.5t-25 60.5z" />
<glyph unicode="&#xd0;" horiz-adv-x="1439" d="M68 672l26 159h148l106 644h420q297 0 450.5 -145t153.5 -431q0 -454 -217.5 -676.5t-660.5 -222.5h-392l113 672h-147zM315 170h242q617 0 617 707q0 426 -429 426h-241l-78 -472h375l-27 -159h-375z" />
<glyph unicode="&#xd1;" horiz-adv-x="1404" d="M55 0l246 1475h168l553 -1145l186 1145h183l-246 -1475h-162l-557 1143l-188 -1143h-183zM573 1630q58 96 101 134t96 38q48 0 126 -32.5t116 -32.5q31 0 48 13.5t48 57.5l90 -34q-47 -97 -93.5 -137t-109.5 -40q-50 0 -131.5 33t-105.5 33t-43.5 -14.5t-52.5 -57.5z" />
<glyph unicode="&#xd2;" d="M109 555q0 85 16 197q29 184 101.5 328t178 235.5t234.5 138.5t276 47q254 0 399.5 -151t145.5 -426q0 -65 -14 -172q-25 -163 -78 -294t-126 -220.5t-165.5 -149t-194.5 -86.5t-216 -27q-260 0 -408.5 146.5t-148.5 433.5zM307 561q0 -210 99.5 -315t279.5 -105 q458 0 563 596q13 74 13 174q0 199 -101 307.5t-276 108.5q-217 0 -366 -145.5t-193 -415.5q-19 -125 -19 -205zM713 1718l104 156l305 -211l-84 -119z" />
<glyph unicode="&#xd3;" d="M109 555q0 85 16 197q29 184 101.5 328t178 235.5t234.5 138.5t276 47q254 0 399.5 -151t145.5 -426q0 -65 -14 -172q-25 -163 -78 -294t-126 -220.5t-165.5 -149t-194.5 -86.5t-216 -27q-260 0 -408.5 146.5t-148.5 433.5zM307 561q0 -210 99.5 -315t279.5 -105 q458 0 563 596q13 74 13 174q0 199 -101 307.5t-276 108.5q-217 0 -366 -145.5t-193 -415.5q-19 -125 -19 -205zM745 1663l375 211l51 -156l-380 -174z" />
<glyph unicode="&#xd4;" d="M109 555q0 85 16 197q29 184 101.5 328t178 235.5t234.5 138.5t276 47q254 0 399.5 -151t145.5 -426q0 -65 -14 -172q-25 -163 -78 -294t-126 -220.5t-165.5 -149t-194.5 -86.5t-216 -27q-260 0 -408.5 146.5t-148.5 433.5zM307 561q0 -210 99.5 -315t279.5 -105 q458 0 563 596q13 74 13 174q0 199 -101 307.5t-276 108.5q-217 0 -366 -145.5t-193 -415.5q-19 -125 -19 -205zM631 1634l248 228h125l165 -228l-90 -75l-164 157l-219 -157z" />
<glyph unicode="&#xd5;" d="M109 555q0 85 16 197q29 184 101.5 328t178 235.5t234.5 138.5t276 47q254 0 399.5 -151t145.5 -426q0 -65 -14 -172q-25 -163 -78 -294t-126 -220.5t-165.5 -149t-194.5 -86.5t-216 -27q-260 0 -408.5 146.5t-148.5 433.5zM307 561q0 -210 99.5 -315t279.5 -105 q458 0 563 596q13 74 13 174q0 199 -101 307.5t-276 108.5q-217 0 -366 -145.5t-193 -415.5q-19 -125 -19 -205zM590 1630q58 96 100.5 134t95.5 38q48 0 126 -32.5t116 -32.5q31 0 48 13.5t48 57.5l90 -34q-47 -97 -93.5 -137t-108.5 -40q-50 0 -132 33t-106 33 t-43.5 -14.5t-52.5 -57.5z" />
<glyph unicode="&#xd6;" d="M109 555q0 85 16 197q29 184 101.5 328t178 235.5t234.5 138.5t276 47q254 0 399.5 -151t145.5 -426q0 -65 -14 -172q-25 -163 -78 -294t-126 -220.5t-165.5 -149t-194.5 -86.5t-216 -27q-260 0 -408.5 146.5t-148.5 433.5zM307 561q0 -210 99.5 -315t279.5 -105 q458 0 563 596q13 74 13 174q0 199 -101 307.5t-276 108.5q-217 0 -366 -145.5t-193 -415.5q-19 -125 -19 -205zM592 1675q0 47 36.5 81t88.5 34q43 0 66.5 -23t23.5 -61q0 -47 -35.5 -81t-85.5 -34q-44 0 -69 23.5t-25 60.5zM987 1675q0 48 36.5 81.5t90.5 33.5 q43 0 66.5 -23t23.5 -61q0 -47 -36 -81t-87 -34q-44 0 -69 23.5t-25 60.5z" />
<glyph unicode="&#xd7;" horiz-adv-x="1228" d="M186 268l336 330l-336 330l93 98l333 -330l332 330l96 -102l-333 -328l333 -334l-92 -94l-334 330l-331 -330z" />
<glyph unicode="&#xd8;" d="M109 555q0 85 16 197q29 184 101.5 328t178 235.5t234.5 138.5t276 47q77 0 140 -14l57 125h150l-78 -168q132 -64 204 -197t72 -323q0 -65 -14 -172q-25 -163 -78 -294t-126 -220.5t-165.5 -149t-194.5 -86.5t-216 -27q-76 0 -156 17l-72 -156h-147l90 197 q-131 63 -201.5 194t-70.5 328zM307 561q0 -255 152 -360l516 1116q-48 10 -90 10q-217 0 -366 -145.5t-193 -415.5q-19 -125 -19 -205zM584 152q60 -11 102 -11q458 0 563 596q13 74 13 174q0 253 -160 357z" />
<glyph unicode="&#xd9;" horiz-adv-x="1378" d="M137 549l154 926h184l-151 -910q-34 -210 43 -316t249 -106q187 0 287 105t135 317l152 910h184l-153 -926q-47 -284 -209.5 -429t-429.5 -145q-254 0 -373.5 143t-71.5 431zM610 1718l105 156l305 -211l-84 -119z" />
<glyph unicode="&#xda;" horiz-adv-x="1378" d="M137 549l154 926h184l-151 -910q-34 -210 43 -316t249 -106q187 0 287 105t135 317l152 910h184l-153 -926q-47 -284 -209.5 -429t-429.5 -145q-254 0 -373.5 143t-71.5 431zM674 1663l375 211l51 -156l-381 -174z" />
<glyph unicode="&#xdb;" horiz-adv-x="1378" d="M137 549l154 926h184l-151 -910q-34 -210 43 -316t249 -106q187 0 287 105t135 317l152 910h184l-153 -926q-47 -284 -209.5 -429t-429.5 -145q-254 0 -373.5 143t-71.5 431zM530 1634l248 228h125l166 -228l-90 -75l-164 157l-219 -157z" />
<glyph unicode="&#xdc;" horiz-adv-x="1378" d="M137 549l154 926h184l-151 -910q-34 -210 43 -316t249 -106q187 0 287 105t135 317l152 910h184l-153 -926q-47 -284 -209.5 -429t-429.5 -145q-254 0 -373.5 143t-71.5 431zM489 1675q0 47 36.5 81t88.5 34q43 0 67 -23t24 -61q0 -47 -35.5 -81t-85.5 -34 q-44 0 -69.5 23.5t-25.5 60.5zM885 1675q0 48 36.5 81.5t90.5 33.5q43 0 66.5 -23t23.5 -61q0 -47 -36 -81t-87 -34q-44 0 -69 23.5t-25 60.5z" />
<glyph unicode="&#xdd;" horiz-adv-x="1169" d="M164 1475h203l243 -670l465 670h207l-614 -859l-103 -616h-186l102 616zM569 1663l375 211l51 -156l-381 -174z" />
<glyph unicode="&#xde;" horiz-adv-x="1200" d="M39 0l246 1475h186l-39 -238h283q68 0 128 -11.5t114.5 -38t93 -66.5t61.5 -102t23 -140q0 -266 -156.5 -406.5t-435.5 -140.5h-262l-56 -332h-186zM307 485h256q192 0 290.5 94.5t98.5 266.5q0 225 -274 225h-272z" />
<glyph unicode="&#xdf;" horiz-adv-x="1132" d="M72 0l155 930h-129l19 112l133 27l8 41q16 98 59.5 174.5t105 123t135 70t155.5 23.5q163 0 253.5 -81t90.5 -226q0 -169 -98 -279.5t-259 -142.5q145 -24 228.5 -110.5t83.5 -231.5q0 -203 -126 -329t-325 -126q-60 0 -129.5 20t-105.5 54l63 117q80 -47 176 -47 q116 0 194.5 80t78.5 231q0 125 -79 183.5t-237 78.5l23 144q155 14 246.5 98t91.5 242q0 182 -187 182q-114 0 -180.5 -72t-91.5 -217l-178 -1069h-174z" />
<glyph unicode="&#xe0;" horiz-adv-x="1193" d="M66 395q0 314 152 510.5t392 196.5q109 0 187.5 -49.5t122.5 -132.5l36 155h154l-180 -1075h-154l12 145q-62 -67 -157 -118.5t-215 -51.5q-175 0 -262.5 111.5t-87.5 308.5zM256 436q0 -50 5 -91t19.5 -80.5t37.5 -66t61.5 -43t89.5 -16.5q92 0 181 51.5t155 118.5 l76 445q-107 182 -279 182q-150 0 -248 -136.5t-98 -363.5zM516 1446l131 131l240 -281l-103 -102z" />
<glyph unicode="&#xe1;" horiz-adv-x="1193" d="M66 395q0 314 152 510.5t392 196.5q109 0 187.5 -49.5t122.5 -132.5l36 155h154l-180 -1075h-154l12 145q-62 -67 -157 -118.5t-215 -51.5q-175 0 -262.5 111.5t-87.5 308.5zM256 436q0 -50 5 -91t19.5 -80.5t37.5 -66t61.5 -43t89.5 -16.5q92 0 181 51.5t155 118.5 l76 445q-107 182 -279 182q-150 0 -248 -136.5t-98 -363.5zM489 1296l336 281l84 -131l-350 -252z" />
<glyph unicode="&#xe2;" horiz-adv-x="1193" d="M66 395q0 314 152 510.5t392 196.5q109 0 187.5 -49.5t122.5 -132.5l36 155h154l-180 -1075h-154l12 145q-62 -67 -157 -118.5t-215 -51.5q-175 0 -262.5 111.5t-87.5 308.5zM256 436q0 -50 5 -91t19.5 -80.5t37.5 -66t61.5 -43t89.5 -16.5q92 0 181 51.5t155 118.5 l76 445q-107 182 -279 182q-150 0 -248 -136.5t-98 -363.5zM426 1249l268 299h123l162 -301l-100 -65l-148 215l-219 -213z" />
<glyph unicode="&#xe3;" horiz-adv-x="1193" d="M66 395q0 314 152 510.5t392 196.5q109 0 187.5 -49.5t122.5 -132.5l36 155h154l-180 -1075h-154l12 145q-62 -67 -157 -118.5t-215 -51.5q-175 0 -262.5 111.5t-87.5 308.5zM256 436q0 -50 5 -91t19.5 -80.5t37.5 -66t61.5 -43t89.5 -16.5q92 0 181 51.5t155 118.5 l76 445q-107 182 -279 182q-150 0 -248 -136.5t-98 -363.5zM416 1270q56 96 99 134t97 38q48 0 125 -33t115 -33q31 0 49 14t47 58l90 -35q-45 -96 -92 -136t-110 -40q-50 0 -132 33t-106 33t-43.5 -14.5t-50.5 -57.5z" />
<glyph unicode="&#xe4;" horiz-adv-x="1193" d="M66 395q0 314 152 510.5t392 196.5q109 0 187.5 -49.5t122.5 -132.5l36 155h154l-180 -1075h-154l12 145q-62 -67 -157 -118.5t-215 -51.5q-175 0 -262.5 111.5t-87.5 308.5zM256 436q0 -50 5 -91t19.5 -80.5t37.5 -66t61.5 -43t89.5 -16.5q92 0 181 51.5t155 118.5 l76 445q-107 182 -279 182q-150 0 -248 -136.5t-98 -363.5zM426 1352q0 47 36.5 80.5t88.5 33.5q43 0 66.5 -23t23.5 -61q0 -47 -35.5 -80.5t-85.5 -33.5q-44 0 -69 23.5t-25 60.5zM821 1352q0 48 36.5 81t90.5 33q43 0 66.5 -23t23.5 -61q0 -47 -36 -80.5t-87 -33.5 q-44 0 -69 23.5t-25 60.5z" />
<glyph unicode="&#xe5;" horiz-adv-x="1193" d="M66 395q0 314 152 510.5t392 196.5q109 0 187.5 -49.5t122.5 -132.5l36 155h154l-180 -1075h-154l12 145q-62 -67 -157 -118.5t-215 -51.5q-175 0 -262.5 111.5t-87.5 308.5zM256 436q0 -50 5 -91t19.5 -80.5t37.5 -66t61.5 -43t89.5 -16.5q92 0 181 51.5t155 118.5 l76 445q-107 182 -279 182q-150 0 -248 -136.5t-98 -363.5zM520 1329q0 92 66.5 154.5t158.5 62.5q72 0 117 -42t45 -111q0 -93 -65 -153t-158 -60q-74 0 -119 39.5t-45 109.5zM633 1346q0 -31 18.5 -47.5t50.5 -16.5q43 0 69 27t26 71q0 62 -68 62q-44 0 -70 -26.5 t-26 -69.5z" />
<glyph unicode="&#xe6;" horiz-adv-x="1851" d="M66 395q0 314 152 510.5t392 196.5q109 0 187.5 -49.5t122.5 -132.5l36 155h154l-35 -153q141 178 375 178q150 0 238 -85.5t88 -211.5q0 -127 -71.5 -208t-239 -129t-449.5 -63q0 -38 6.5 -73t25 -72.5t47.5 -65t77.5 -45.5t111.5 -18q84 0 162.5 27t173.5 86l49 -123 q-194 -144 -426 -144q-140 0 -223.5 56.5t-140.5 171.5q-205 -228 -463 -228q-175 0 -262.5 111.5t-87.5 308.5zM256 436q0 -50 5 -91t19.5 -80.5t37.5 -66t61.5 -43t89.5 -16.5q92 0 181 51.5t155 118.5l76 445q-107 182 -279 182q-150 0 -248 -136.5t-98 -363.5zM1024 537 q171 7 288 30.5t177 61t84 78.5t24 94q0 68 -51 108.5t-139 40.5q-151 0 -255.5 -120.5t-127.5 -292.5z" />
<glyph unicode="&#xe7;" horiz-adv-x="1056" d="M74 420q0 155 47 284.5t127.5 215t188 133t229.5 47.5q190 0 274.5 -104t60.5 -298h-165q15 242 -195 242q-169 0 -274 -133.5t-105 -357.5q0 -144 63.5 -231t188.5 -87q87 0 161 26.5t173 88.5l53 -121q-186 -144 -409 -150l-31 -81q155 -8 155 -127q0 -97 -64 -149 t-181 -52q-89 0 -158 33l41 98q63 -25 119 -25q98 0 98 76q0 31 -27.5 42t-85.5 11h-45l70 183q-148 23 -228.5 136.5t-80.5 299.5z" />
<glyph unicode="&#xe8;" horiz-adv-x="1085" d="M72 408q0 305 166 498.5t426 193.5q163 0 248 -83.5t85 -213.5q0 -128 -68 -209.5t-233.5 -130t-445.5 -60.5q0 -38 6.5 -73t25 -72.5t47.5 -65t77.5 -45.5t111.5 -18q156 0 332 111l57 -121q-194 -144 -430 -144q-194 0 -299.5 110t-105.5 323zM258 541q122 7 215 19.5 t154 32t101 41t60 50.5t27.5 56t7.5 63q0 69 -47 108t-135 39q-152 0 -256 -117.5t-127 -291.5zM481 1446l131 131l240 -281l-102 -102z" />
<glyph unicode="&#xe9;" horiz-adv-x="1085" d="M72 408q0 305 166 498.5t426 193.5q163 0 248 -83.5t85 -213.5q0 -128 -68 -209.5t-233.5 -130t-445.5 -60.5q0 -38 6.5 -73t25 -72.5t47.5 -65t77.5 -45.5t111.5 -18q156 0 332 111l57 -121q-194 -144 -430 -144q-194 0 -299.5 110t-105.5 323zM258 541q122 7 215 19.5 t154 32t101 41t60 50.5t27.5 56t7.5 63q0 69 -47 108t-135 39q-152 0 -256 -117.5t-127 -291.5zM506 1296l336 281l84 -131l-351 -252z" />
<glyph unicode="&#xea;" horiz-adv-x="1085" d="M72 408q0 305 166 498.5t426 193.5q163 0 248 -83.5t85 -213.5q0 -128 -68 -209.5t-233.5 -130t-445.5 -60.5q0 -38 6.5 -73t25 -72.5t47.5 -65t77.5 -45.5t111.5 -18q156 0 332 111l57 -121q-194 -144 -430 -144q-194 0 -299.5 110t-105.5 323zM258 541q122 7 215 19.5 t154 32t101 41t60 50.5t27.5 56t7.5 63q0 69 -47 108t-135 39q-152 0 -256 -117.5t-127 -291.5zM379 1249l268 299h123l162 -301l-101 -65l-147 215l-219 -213z" />
<glyph unicode="&#xeb;" horiz-adv-x="1085" d="M72 408q0 305 166 498.5t426 193.5q163 0 248 -83.5t85 -213.5q0 -128 -68 -209.5t-233.5 -130t-445.5 -60.5q0 -38 6.5 -73t25 -72.5t47.5 -65t77.5 -45.5t111.5 -18q156 0 332 111l57 -121q-194 -144 -430 -144q-194 0 -299.5 110t-105.5 323zM258 541q122 7 215 19.5 t154 32t101 41t60 50.5t27.5 56t7.5 63q0 69 -47 108t-135 39q-152 0 -256 -117.5t-127 -291.5zM412 1352q0 47 36.5 80.5t88.5 33.5q43 0 66.5 -23t23.5 -61q0 -47 -35.5 -80.5t-85.5 -33.5q-44 0 -69 23.5t-25 60.5zM807 1352q0 48 36.5 81t90.5 33q43 0 66.5 -23 t23.5 -61q0 -47 -36 -80.5t-87 -33.5q-44 0 -69 23.5t-25 60.5z" />
<glyph unicode="&#xec;" horiz-adv-x="491" d="M57 0l181 1071h174l-181 -1071h-174zM170 1446l131 131l240 -281l-103 -102z" />
<glyph unicode="&#xed;" horiz-adv-x="491" d="M57 0l181 1071h174l-181 -1071h-174zM217 1296l336 281l84 -131l-350 -252z" />
<glyph unicode="&#xee;" horiz-adv-x="491" d="M57 0l181 1071h174l-181 -1071h-174zM59 1249l269 299h123l161 -301l-100 -65l-147 215l-220 -213z" />
<glyph unicode="&#xef;" horiz-adv-x="491" d="M57 0l181 1071h174l-181 -1071h-174zM70 1352q0 47 36.5 80.5t88.5 33.5q43 0 66.5 -23t23.5 -61q0 -47 -35.5 -80.5t-85.5 -33.5q-44 0 -69 23.5t-25 60.5zM465 1352q0 48 36.5 81t90.5 33q43 0 66.5 -23t23.5 -61q0 -47 -36 -80.5t-87 -33.5q-44 0 -69 23.5t-25 60.5z " />
<glyph unicode="&#xf0;" horiz-adv-x="1103" d="M53 346q0 149 57.5 274t169 202t255.5 77q193 0 301 -149q13 253 -84 391l-179 -111l-57 111l148 92q-99 74 -263 110l68 136q216 -39 340 -154l178 111l60 -111l-154 -96q108 -156 108 -443q0 -237 -67 -419t-201 -287t-317 -105q-169 0 -266 98.5t-97 272.5zM229 373 q0 -119 59 -181.5t156 -62.5q136 0 233.5 118.5t133.5 348.5q-24 29 -45.5 50t-55.5 46.5t-76 39t-89 13.5q-134 0 -225 -96.5t-91 -275.5z" />
<glyph unicode="&#xf1;" horiz-adv-x="1138" d="M45 0l180 1075h152l-15 -157q81 82 178.5 132t200.5 50q328 0 263 -395l-119 -705h-178l110 659q46 277 -143 277q-64 0 -135.5 -32.5t-114.5 -66t-74 -65.5l-129 -772h-176zM375 1270q56 96 99 134t97 38q47 0 124 -33t116 -33q31 0 49 14t47 58l90 -35 q-45 -96 -92 -136t-110 -40q-50 0 -132 33t-106 33t-43.5 -14.5t-50.5 -57.5z" />
<glyph unicode="&#xf2;" horiz-adv-x="1175" d="M66 399q0 55 10 133q39 273 199.5 420.5t388.5 147.5q192 0 298.5 -112t106.5 -316q0 -76 -10 -135q-22 -142 -76 -250.5t-132 -176t-173.5 -101.5t-206.5 -34q-196 0 -300.5 110t-104.5 314zM254 412q0 -277 246 -277q136 0 237 101t133 299q11 75 11 116 q0 144 -68 216.5t-182 72.5q-135 0 -234 -101t-133 -298q-10 -75 -10 -129zM526 1446l131 131l240 -281l-102 -102z" />
<glyph unicode="&#xf3;" horiz-adv-x="1175" d="M66 399q0 55 10 133q39 273 199.5 420.5t388.5 147.5q192 0 298.5 -112t106.5 -316q0 -76 -10 -135q-22 -142 -76 -250.5t-132 -176t-173.5 -101.5t-206.5 -34q-196 0 -300.5 110t-104.5 314zM254 412q0 -277 246 -277q136 0 237 101t133 299q11 75 11 116 q0 144 -68 216.5t-182 72.5q-135 0 -234 -101t-133 -298q-10 -75 -10 -129zM522 1296l336 281l84 -131l-350 -252z" />
<glyph unicode="&#xf4;" horiz-adv-x="1175" d="M66 399q0 55 10 133q39 273 199.5 420.5t388.5 147.5q192 0 298.5 -112t106.5 -316q0 -76 -10 -135q-22 -142 -76 -250.5t-132 -176t-173.5 -101.5t-206.5 -34q-196 0 -300.5 110t-104.5 314zM254 412q0 -277 246 -277q136 0 237 101t133 299q11 75 11 116 q0 144 -68 216.5t-182 72.5q-135 0 -234 -101t-133 -298q-10 -75 -10 -129zM418 1249l268 299h123l162 -301l-101 -65l-147 215l-219 -213z" />
<glyph unicode="&#xf5;" horiz-adv-x="1175" d="M66 399q0 55 10 133q39 273 199.5 420.5t388.5 147.5q192 0 298.5 -112t106.5 -316q0 -76 -10 -135q-22 -142 -76 -250.5t-132 -176t-173.5 -101.5t-206.5 -34q-196 0 -300.5 110t-104.5 314zM254 412q0 -277 246 -277q136 0 237 101t133 299q11 75 11 116 q0 144 -68 216.5t-182 72.5q-135 0 -234 -101t-133 -298q-10 -75 -10 -129zM401 1270q56 95 99.5 133.5t97.5 38.5q48 0 125 -33t115 -33q31 0 49 14t47 58l90 -35q-45 -96 -92.5 -136t-110.5 -40q-50 0 -131.5 33t-105.5 33t-44 -14.5t-51 -57.5z" />
<glyph unicode="&#xf6;" horiz-adv-x="1175" d="M66 399q0 55 10 133q39 273 199.5 420.5t388.5 147.5q192 0 298.5 -112t106.5 -316q0 -76 -10 -135q-22 -142 -76 -250.5t-132 -176t-173.5 -101.5t-206.5 -34q-196 0 -300.5 110t-104.5 314zM254 412q0 -277 246 -277q136 0 237 101t133 299q11 75 11 116 q0 144 -68 216.5t-182 72.5q-135 0 -234 -101t-133 -298q-10 -75 -10 -129zM430 1352q0 47 36.5 80.5t88.5 33.5q43 0 66.5 -23t23.5 -61q0 -47 -35.5 -80.5t-85.5 -33.5q-44 0 -69 23.5t-25 60.5zM825 1352q0 48 36.5 81t90.5 33q43 0 66.5 -23t23.5 -61q0 -47 -35.5 -80.5 t-86.5 -33.5q-44 0 -69.5 23.5t-25.5 60.5z" />
<glyph unicode="&#xf7;" horiz-adv-x="1228" d="M82 541v133h1065v-133h-1065zM514 258q0 41 29 71.5t69 30.5q41 0 70 -30t29 -72q0 -40 -29 -70t-70 -30q-38 0 -68 31t-30 69zM516 961q0 41 28 71.5t68 30.5q41 0 70 -29.5t29 -72.5q0 -40 -29 -69.5t-70 -29.5q-38 0 -67 30t-29 69z" />
<glyph unicode="&#xf8;" horiz-adv-x="1175" d="M66 399q0 55 10 133q39 273 199.5 420.5t388.5 147.5q30 0 88 -8l57 122h149l-77 -165q188 -103 188 -377q0 -76 -10 -135q-22 -142 -76 -250.5t-132 -176t-173.5 -101.5t-206.5 -34q-51 0 -94 9l-66 -140h-147l84 181q-182 101 -182 374zM254 412q0 -151 74 -219 l350 743q-32 4 -47 4q-135 0 -234 -101t-133 -298q-10 -75 -10 -129zM451 137q14 -2 49 -2q136 0 237 101t133 299q11 75 11 116q0 153 -80 230z" />
<glyph unicode="&#xf9;" horiz-adv-x="1118" d="M96 354l121 721h178l-114 -678q-13 -83 -10.5 -140.5t37 -87.5t108.5 -30q87 0 174 46t153 112l131 778h175l-181 -1075h-147l12 156q-177 -181 -364 -181q-338 0 -273 379zM477 1446l131 131l240 -281l-103 -102z" />
<glyph unicode="&#xfa;" horiz-adv-x="1118" d="M96 354l121 721h178l-114 -678q-13 -83 -10.5 -140.5t37 -87.5t108.5 -30q87 0 174 46t153 112l131 778h175l-181 -1075h-147l12 156q-177 -181 -364 -181q-338 0 -273 379zM475 1296l336 281l84 -131l-350 -252z" />
<glyph unicode="&#xfb;" horiz-adv-x="1118" d="M96 354l121 721h178l-114 -678q-13 -83 -10.5 -140.5t37 -87.5t108.5 -30q87 0 174 46t153 112l131 778h175l-181 -1075h-147l12 156q-177 -181 -364 -181q-338 0 -273 379zM385 1249l268 299h123l162 -301l-100 -65l-148 215l-219 -213z" />
<glyph unicode="&#xfc;" horiz-adv-x="1118" d="M96 354l121 721h178l-114 -678q-13 -83 -10.5 -140.5t37 -87.5t108.5 -30q87 0 174 46t153 112l131 778h175l-181 -1075h-147l12 156q-177 -181 -364 -181q-338 0 -273 379zM389 1352q0 47 36.5 80.5t88.5 33.5q43 0 66.5 -23t23.5 -61q0 -47 -35.5 -80.5t-85.5 -33.5 q-44 0 -69 23.5t-25 60.5zM784 1352q0 48 36.5 81t90.5 33q43 0 66.5 -23t23.5 -61q0 -47 -35.5 -80.5t-86.5 -33.5q-44 0 -69.5 23.5t-25.5 60.5z" />
<glyph unicode="&#xfd;" horiz-adv-x="991" d="M-121 -389l41 129q72 -16 137 -16q66 0 113.5 45t108.5 174l28 57l-190 1075h186l123 -860l416 860h188l-557 -1089q-104 -201 -149 -263q-70 -97 -159 -123q-47 -14 -110 -14q-85 0 -176 25zM420 1296l336 281l84 -131l-351 -252z" />
<glyph unicode="&#xfe;" horiz-adv-x="1167" d="M-37 -410l313 1885h175l-93 -557q176 184 385 184q162 0 247 -110.5t85 -309.5q0 -201 -60 -358.5t-185 -253t-300 -95.5q-63 0 -116.5 15.5t-90 41.5t-58.5 48.5t-38 46.5l-88 -537h-176zM254 285q34 -62 105 -109t165 -47q175 0 268 141.5t93 384.5q0 142 -54 216.5 t-163 74.5q-162 0 -332 -178z" />
<glyph unicode="&#xff;" horiz-adv-x="991" d="M-121 -389l41 129q72 -16 137 -16q66 0 113.5 45t108.5 174l28 57l-190 1075h186l123 -860l416 860h188l-557 -1089q-104 -201 -149 -263q-70 -97 -159 -123q-47 -14 -110 -14q-85 0 -176 25zM317 1352q0 47 36.5 80.5t88.5 33.5q43 0 66.5 -23t23.5 -61q0 -47 -35 -80.5 t-85 -33.5q-44 0 -69.5 23.5t-25.5 60.5zM713 1352q0 48 36.5 81t90.5 33q43 0 66.5 -23t23.5 -61q0 -47 -36 -80.5t-87 -33.5q-44 0 -69 23.5t-25 60.5z" />
<glyph unicode="&#x152;" horiz-adv-x="2244" d="M111 575q0 179 40.5 330t112.5 259.5t170 184.5t213.5 113t243.5 37q167 0 285 -80.5t151 -226.5l47 283h899l-26 -168h-729l-80 -471h663l-26 -160h-664l-84 -508h744l-29 -168h-914l50 293q-87 -155 -233.5 -236.5t-319.5 -81.5q-236 0 -375 152.5t-139 447.5zM309 604 q0 -222 98.5 -338t276.5 -116q120 0 222 44t182 131t126 231t46 331q0 219 -102.5 328.5t-276.5 109.5q-125 0 -230.5 -50t-181 -141.5t-118 -227.5t-42.5 -302z" />
<glyph unicode="&#x153;" horiz-adv-x="1884" d="M72 412q0 157 45.5 287t126.5 217.5t193.5 135.5t244.5 48q124 0 215.5 -63.5t126.5 -176.5q68 112 186.5 176t251.5 64q165 0 255.5 -83t90.5 -214q0 -127 -74 -209.5t-242.5 -131t-442.5 -59.5q0 -38 6.5 -73t25 -72.5t47.5 -65t77.5 -45.5t111.5 -18q84 0 162.5 27 t173.5 86l49 -123q-194 -144 -426 -144q-132 0 -227.5 62.5t-133.5 175.5q-66 -111 -188.5 -174.5t-259.5 -63.5q-189 0 -292 114.5t-103 322.5zM260 438q0 -150 65.5 -226.5t178.5 -76.5q98 0 174 43t121 115t67.5 158.5t22.5 181.5q0 152 -67.5 229.5t-180.5 77.5 q-164 0 -272.5 -132.5t-108.5 -369.5zM1057 537q134 5 236 21.5t165 41t102.5 58t54.5 68t15 75.5q0 70 -50.5 109.5t-139.5 39.5q-144 0 -247 -108.5t-136 -304.5z" />
<glyph unicode="&#x178;" horiz-adv-x="1169" d="M164 1475h203l243 -670l465 670h207l-614 -859l-103 -616h-186l102 616zM451 1675q0 48 36 81.5t88 33.5q43 0 67 -23t24 -61q0 -47 -35.5 -81t-85.5 -34q-44 0 -69 23.5t-25 60.5zM846 1675q0 48 36.5 81.5t90.5 33.5q43 0 66.5 -23t23.5 -61q0 -47 -36 -81t-87 -34 q-44 0 -69 23.5t-25 60.5z" />
<glyph unicode="&#x2c6;" horiz-adv-x="997" d="M186 1249l269 299h123l161 -301l-100 -65l-147 215l-220 -213z" />
<glyph unicode="&#x2dc;" horiz-adv-x="999" d="M172 1270q56 95 99.5 133.5t97.5 38.5q47 0 124 -33t115 -33q31 0 49.5 14.5t47.5 57.5l90 -35q-45 -96 -92.5 -136t-110.5 -40q-50 0 -132 33t-106 33t-43.5 -14.5t-50.5 -57.5z" />
<glyph unicode="&#x2000;" horiz-adv-x="937" />
<glyph unicode="&#x2001;" horiz-adv-x="1874" />
<glyph unicode="&#x2002;" horiz-adv-x="937" />
<glyph unicode="&#x2003;" horiz-adv-x="1874" />
<glyph unicode="&#x2004;" horiz-adv-x="624" />
<glyph unicode="&#x2005;" horiz-adv-x="468" />
<glyph unicode="&#x2006;" horiz-adv-x="312" />
<glyph unicode="&#x2007;" horiz-adv-x="312" />
<glyph unicode="&#x2008;" horiz-adv-x="234" />
<glyph unicode="&#x2009;" horiz-adv-x="374" />
<glyph unicode="&#x200a;" horiz-adv-x="104" />
<glyph unicode="&#x2010;" horiz-adv-x="665" d="M41 469l31 178h534l-31 -178h-534z" />
<glyph unicode="&#x2011;" horiz-adv-x="665" d="M41 469l31 178h534l-31 -178h-534z" />
<glyph unicode="&#x2012;" horiz-adv-x="665" d="M41 469l31 178h534l-31 -178h-534z" />
<glyph unicode="&#x2013;" horiz-adv-x="1024" d="M-14 479l22 131h1000l-23 -131h-999z" />
<glyph unicode="&#x2014;" horiz-adv-x="2048" d="M2 479l23 131h1996l-22 -131h-1997z" />
<glyph unicode="&#x2018;" horiz-adv-x="415" d="M190 1214q0 101 57 183t199 145l25 -69q-78 -39 -107.5 -75.5t-41.5 -88.5q50 6 80 -18t30 -68q0 -56 -38 -90.5t-101 -34.5q-51 0 -77 32t-26 84z" />
<glyph unicode="&#x2019;" horiz-adv-x="415" d="M172 1102q78 40 108 76t42 88q-50 -6 -80.5 18.5t-30.5 67.5q0 56 38 90.5t101 34.5q50 0 76.5 -32.5t26.5 -84.5q0 -101 -57 -183t-199 -145z" />
<glyph unicode="&#x201a;" horiz-adv-x="415" d="M-14 -205q78 39 107.5 75.5t41.5 88.5q-50 -6 -80 18t-30 68q0 56 38 90.5t101 34.5q50 0 76 -32.5t26 -84.5q0 -101 -57 -182.5t-199 -144.5z" />
<glyph unicode="&#x201c;" horiz-adv-x="737" d="M190 1214q0 101 57 183t199 145l25 -69q-78 -39 -107.5 -75.5t-41.5 -88.5q50 6 80 -18t30 -68q0 -56 -38 -90.5t-101 -34.5q-51 0 -77 32t-26 84zM512 1214q0 101 57 183t199 145l25 -69q-78 -40 -108 -76t-42 -88q50 6 80.5 -18.5t30.5 -67.5q0 -56 -38.5 -90.5 t-101.5 -34.5q-50 0 -76 32t-26 84z" />
<glyph unicode="&#x201d;" horiz-adv-x="737" d="M172 1102q78 40 108 76t42 88q-50 -6 -80.5 18.5t-30.5 67.5q0 56 38 90.5t101 34.5q50 0 76.5 -32.5t26.5 -84.5q0 -101 -57 -183t-199 -145zM494 1102q78 39 107.5 75.5t41.5 88.5q-50 -6 -80.5 18.5t-30.5 67.5q0 56 38.5 90.5t101.5 34.5q50 0 76 -32.5t26 -84.5 q0 -101 -57 -183t-199 -145z" />
<glyph unicode="&#x201e;" horiz-adv-x="729" d="M-14 -205q78 39 107.5 75.5t41.5 88.5q-50 -6 -80 18t-30 68q0 56 38 90.5t101 34.5q50 0 76 -32.5t26 -84.5q0 -101 -57 -182.5t-199 -144.5zM299 -205q78 40 108 76t42 88q-50 -6 -80.5 18.5t-30.5 67.5q0 56 38 90.5t101 34.5q50 0 76.5 -32.5t26.5 -84.5 q0 -101 -57 -182.5t-199 -144.5z" />
<glyph unicode="&#x2022;" horiz-adv-x="1024" d="M274 639q0 103 71.5 172.5t172.5 69.5q98 0 170 -68.5t72 -173.5q0 -104 -71.5 -174t-172.5 -70q-103 0 -172.5 70.5t-69.5 173.5z" />
<glyph unicode="&#x2026;" horiz-adv-x="1589" d="M45 94q0 60 37 93.5t98 33.5q58 0 94.5 -33t36.5 -90q0 -56 -36.5 -89.5t-94.5 -33.5q-61 0 -98 32.5t-37 86.5zM594 94q0 60 37 93.5t98 33.5q58 0 94.5 -33t36.5 -90q0 -56 -36.5 -89.5t-94.5 -33.5q-61 0 -98 32.5t-37 86.5zM1143 94q0 60 37 93.5t98 33.5 q58 0 94.5 -33t36.5 -90q0 -56 -36.5 -89.5t-94.5 -33.5q-61 0 -98 32.5t-37 86.5z" />
<glyph unicode="&#x202f;" horiz-adv-x="374" />
<glyph unicode="&#x2039;" horiz-adv-x="536" d="M88 502l12 71l353 293l84 -92l-252 -237l172 -240l-113 -92z" />
<glyph unicode="&#x203a;" horiz-adv-x="536" d="M0 297l252 238l-172 239l113 92l256 -297l-13 -71l-352 -293z" />
<glyph unicode="&#x205f;" horiz-adv-x="468" />
<glyph unicode="&#x20ac;" horiz-adv-x="1212" d="M-31 502l31 131h154q0 32 10 94q3 13 7 33.5t7 34.5h-139l33 131h143q33 106 93.5 202.5t142.5 175t190.5 125t226.5 46.5q128 0 239 -58t173 -184l-115 -88q-56 87 -138.5 134.5t-182.5 47.5q-154 0 -271.5 -109t-183.5 -292h641l-33 -131h-645q-4 -18 -12 -66 q-10 -61 -12 -96h630l-32 -131h-602q11 -175 94.5 -274t228.5 -99q112 0 202 39t183 113l70 -101q-119 -104 -240 -154.5t-262 -50.5q-111 0 -198 41t-141.5 113t-83 166.5t-30.5 206.5h-178z" />
<glyph unicode="&#x2122;" horiz-adv-x="1269" d="M143 1386v89h443v-89h-176v-444h-93v444h-174zM649 942l58 533h104l147 -400l148 400h98l62 -533h-88l-39 387l-150 -387h-67l-144 387l-39 -387h-90z" />
<glyph unicode="&#x25fc;" horiz-adv-x="1075" d="M0 0v1075h1075v-1075h-1075z" />
</font>
</defs>
</svg>
