<?xml version="1.0" standalone="no"?>
<!DOCTYPE svg PUBLIC "-//W3C//DTD SVG 1.1//EN" "http://www.w3.org/Graphics/SVG/1.1/DTD/svg11.dtd" >
<svg xmlns="http://www.w3.org/2000/svg" xmlns:xlink="http://www.w3.org/1999/xlink" version="1.1">
<metadata></metadata>
<defs>
<font id="lft_eticabook_italic" horiz-adv-x="1161" >
<font-face units-per-em="2048" ascent="1495" descent="-553" />
<missing-glyph horiz-adv-x="415" />
<glyph unicode="&#xfb01;" horiz-adv-x="1021" d="M72 0l159 950h-118l14 94l123 23l26 154q22 127 91.5 203.5t191.5 76.5q61 0 125 -18l-25 -115q-37 12 -90 12q-121 0 -147 -151l-25 -154h543l-180 -1075h-146l160 950h-397l-160 -950h-145zM815 1352q0 51 35 81.5t84 30.5q37 0 59.5 -21.5t22.5 -58.5q0 -50 -33.5 -82 t-81.5 -32q-37 0 -61.5 23t-24.5 59z" />
<glyph unicode="&#xfb02;" horiz-adv-x="1011" d="M72 0l159 950h-118l14 94l123 23l26 154q22 127 91.5 203.5t191.5 76.5q61 0 125 -18l-25 -115q-37 12 -90 12q-121 0 -147 -151l-25 -154h398l65 400h146l-246 -1475h-146l160 950h-397l-160 -950h-145z" />
<glyph unicode="&#xfb03;" horiz-adv-x="1562" d="M72 0l159 950h-118l14 94l123 23l22 131q22 126 92 202.5t191 76.5q56 0 131 -21l-29 -113q-51 15 -92 15q-53 0 -92.5 -35.5t-52.5 -116.5l-23 -131h398l24 146q20 126 90.5 203t192.5 77q62 0 123 -18l-23 -115q-40 12 -92 12q-119 0 -145 -151l-25 -154h541 l-181 -1075h-147l160 950h-393l-160 -950h-146l160 950h-397l-160 -950h-145zM1354 1352q0 50 36.5 81t84.5 31q37 0 59 -21.5t22 -58.5q0 -50 -33 -82t-81 -32q-39 0 -63.5 23t-24.5 59z" />
<glyph unicode="&#xfb04;" horiz-adv-x="1554" d="M72 0l159 950h-118l14 94l123 23l22 129q20 126 90 202.5t191 76.5q65 0 133 -19l-29 -113q-51 15 -92 15q-53 0 -93 -36t-54 -118l-21 -129h398l24 146q20 126 90.5 203t192.5 77q62 0 123 -18l-23 -115q-40 12 -92 12q-119 0 -145 -151l-25 -154h397l66 400h145 l-245 -1475h-146l160 950h-397l-160 -950h-146l160 950h-397l-160 -950h-145z" />
<glyph horiz-adv-x="0" />
<glyph horiz-adv-x="682" />
<glyph unicode=" "  horiz-adv-x="415" />
<glyph unicode="&#x09;" horiz-adv-x="415" />
<glyph unicode="&#xa0;" horiz-adv-x="415" />
<glyph unicode="!" horiz-adv-x="620" d="M111 63q0 59 36.5 93t94.5 34q41 0 67.5 -24t26.5 -66q0 -55 -38.5 -90t-92.5 -35q-43 0 -68.5 24t-25.5 64zM217 406l78 575l82 494h155l-81 -494l-117 -575h-117z" />
<glyph unicode="&#x22;" horiz-adv-x="722" d="M201 907v568h139v-568h-139zM492 907v568h139v-568h-139z" />
<glyph unicode="#" horiz-adv-x="1423" d="M109 399v107h274l100 289h-262v108h299l142 406l102 -25l-131 -381h325l144 404l102 -23l-133 -381h252v-108h-291l-100 -289h280v-107h-315l-137 -372l-101 24l127 348h-329l-135 -372l-99 24l123 348h-237zM498 506h321l103 289h-330z" />
<glyph unicode="$" horiz-adv-x="1030" d="M-29 201l101 90q149 -172 334 -172q142 0 240.5 76.5t98.5 210.5q0 83 -60.5 140t-209.5 107q-169 55 -244 130.5t-75 197.5q0 178 118.5 288t303.5 126l28 174h121l-29 -174q104 -12 186.5 -60.5t133.5 -128.5l-98 -82q-57 74 -135 114t-164 40q-136 0 -227 -68 t-91 -192q0 -90 67 -142t216 -102q162 -55 235.5 -136t73.5 -200q0 -177 -122.5 -295.5t-307.5 -142.5l-31 -178h-121l31 178q-228 16 -373 201z" />
<glyph unicode="%" horiz-adv-x="1687" d="M170 1090q0 156 111.5 266t267.5 110q121 0 194.5 -74.5t73.5 -195.5q0 -101 -52.5 -187.5t-139.5 -136t-185 -49.5q-123 0 -196.5 73.5t-73.5 193.5zM240 0l1116 1475h153l-1118 -1475h-151zM293 1108q0 -78 45.5 -127t120.5 -49q98 0 166.5 72t68.5 176q0 79 -45 128.5 t-119 49.5q-100 0 -168.5 -73t-68.5 -177zM913 262q0 155 112.5 265t266.5 110q122 0 196.5 -77.5t74.5 -197.5q0 -152 -113.5 -261t-265.5 -109q-122 0 -196.5 75.5t-74.5 194.5zM1036 281q0 -78 45.5 -128.5t120.5 -50.5q97 0 166.5 72.5t69.5 173.5q0 77 -45.5 128.5 t-118.5 51.5q-98 0 -168 -73t-70 -174z" />
<glyph unicode="&#x26;" horiz-adv-x="1421" d="M115 330q0 175 106.5 303t315.5 221q-109 147 -109 276q0 149 107.5 251t267.5 102q122 0 196 -67.5t74 -182.5q0 -255 -342 -412l143 -217l283 209l66 -98l-287 -215l285 -432l-125 -86l-131 196q-110 -110 -224 -161.5t-249 -51.5q-171 0 -274 100.5t-103 264.5z M262 358q0 -113 71 -187.5t195 -74.5q182 0 375 193l-305 475q-336 -144 -336 -406zM567 1153q0 -109 101 -242q272 120 272 297q0 66 -44 109t-116 43q-91 0 -152 -59.5t-61 -147.5z" />
<glyph unicode="'" horiz-adv-x="432" d="M201 907v568h139v-568h-139z" />
<glyph unicode="(" horiz-adv-x="690" d="M115 420q0 307 127.5 573t369.5 508l90 -59q-238 -264 -342 -503t-104 -523q0 -321 174 -606l-94 -72q-107 122 -164 302t-57 380z" />
<glyph unicode=")" horiz-adv-x="692" d="M-6 -203q238 264 342 503t104 523q0 322 -174 607l94 71q107 -123 164.5 -302.5t57.5 -379.5q0 -307 -128 -573t-370 -508z" />
<glyph unicode="*" horiz-adv-x="876" d="M207 1221l26 75l230 -55l18 234h80l19 -232l231 55l27 -77l-220 -82l140 -215l-64 -47l-174 198l-176 -198l-70 47l146 215z" />
<glyph unicode="+" horiz-adv-x="1228" d="M78 551v117h475v477h121v-477h475v-117h-475v-477h-121v477h-475z" />
<glyph unicode="," horiz-adv-x="479" d="M-20 -205q82 39 124 86t54 109q-26 -13 -52 -13q-36 0 -55.5 23.5t-19.5 60.5q0 56 37.5 90.5t95.5 34.5q54 0 80 -34t26 -86q0 -102 -67 -192t-201 -144z" />
<glyph unicode="-" horiz-adv-x="665" d="M47 492l25 143h530l-24 -143h-531z" />
<glyph unicode="." horiz-adv-x="497" d="M51 84q0 53 32.5 83t84.5 30t84.5 -29.5t32.5 -81.5q0 -50 -32.5 -80.5t-84.5 -30.5q-53 0 -85 30t-32 79z" />
<glyph unicode="/" horiz-adv-x="722" d="M-88 -188l770 1701h139l-776 -1701h-133z" />
<glyph unicode="0" horiz-adv-x="1193" d="M100 444q0 123 27 279q67 388 218 570t392 182q383 0 383 -465q0 -110 -26 -279q-119 -756 -615 -756q-379 0 -379 469zM250 451q0 -179 64 -263t192 -84q164 0 272.5 152.5t163.5 470.5q25 159 25 266q0 179 -59.5 262.5t-184.5 83.5q-168 0 -280.5 -149t-166.5 -467 q-26 -163 -26 -272z" />
<glyph unicode="1" horiz-adv-x="905" d="M25 0l20 125h313l187 1110q-181 -109 -363 -141v114q109 27 230.5 93.5t210.5 150.5h102l-223 -1327h276l-20 -125h-733z" />
<glyph unicode="2" horiz-adv-x="1005" d="M-29 0l19 104l637 687q105 114 144.5 187t39.5 155q0 92 -57.5 146t-157.5 54q-171 0 -369 -164l-65 101q105 96 228 150.5t249 54.5q140 0 234 -88t94 -230q0 -118 -53 -215t-162 -213l-564 -594h621l-23 -135h-815z" />
<glyph unicode="3" horiz-adv-x="1028" d="M-39 172l96 98q74 -82 151 -121.5t187 -39.5q145 0 249 91t104 244q0 110 -68 173.5t-215 64.5q-14 0 -57 -2t-46 -2l17 131q107 2 200 45.5t151 121.5t58 173q0 92 -58 141t-150 49q-166 0 -322 -104l-47 102q200 138 407 138q145 0 232.5 -77.5t87.5 -213.5 q0 -139 -93 -255.5t-235 -162.5q143 -13 213 -93t70 -208q0 -114 -43 -208.5t-115 -155t-164 -93.5t-192 -33q-268 0 -418 197z" />
<glyph unicode="4" horiz-adv-x="1073" d="M20 346l21 119l764 987h192l-163 -973h167l-22 -133h-168l-57 -346h-142l58 346h-650zM199 479h493l137 821z" />
<glyph unicode="5" horiz-adv-x="1058" d="M0 109l80 110q145 -108 311 -108q174 0 281.5 108t107.5 309q0 114 -56 181t-169 67q-155 0 -276 -117l-17 -69h-131l205 862h674l-33 -143h-545l-121 -514q123 110 301 110q157 0 238.5 -90.5t81.5 -251.5q0 -137 -43.5 -249.5t-119 -186t-175.5 -113t-215 -39.5 q-97 0 -198.5 33.5t-180.5 100.5z" />
<glyph unicode="6" horiz-adv-x="1073" d="M90 438q0 300 82 535t236.5 368.5t355.5 133.5q81 0 158 -29.5t133 -89.5l-80 -101q-102 91 -227 91q-74 0 -137.5 -25t-111 -72t-84.5 -101.5t-65.5 -127t-47.5 -133.5t-36 -135q172 149 381 149q102 0 173 -48t103.5 -127t32.5 -181q0 -265 -138 -417.5t-363 -152.5 q-184 0 -274.5 119.5t-90.5 343.5zM238 442q0 -180 59 -261t178 -81q66 0 125.5 26.5t107 76.5t75.5 131t28 182q0 125 -59.5 188.5t-157.5 63.5q-91 0 -183.5 -51.5t-162.5 -114.5q-10 -98 -10 -160z" />
<glyph unicode="7" horiz-adv-x="884" d="M74 0l4 20l727 1299h-655l24 133h821l-18 -104l-752 -1348h-151z" />
<glyph unicode="8" horiz-adv-x="1052" d="M33 297q0 169 109.5 293t277.5 190q-97 41 -148 115t-51 174q0 179 129.5 292.5t323.5 113.5q150 0 240 -75t90 -204q0 -128 -89 -236t-227 -172q244 -117 244 -335q0 -214 -147 -346t-377 -132q-179 0 -277 85t-98 237zM184 324q0 -100 66.5 -160t185.5 -60 q148 0 247 92.5t99 231.5q0 198 -258 291q-340 -139 -340 -395zM371 1098q0 -88 57.5 -150.5t149.5 -99.5q47 20 93 50t90.5 71.5t71.5 95.5t27 111q0 85 -55.5 130.5t-153.5 45.5q-124 0 -202 -69.5t-78 -184.5z" />
<glyph unicode="9" horiz-adv-x="1058" d="M43 90l74 98q57 -46 111 -69t139 -23q87 0 161.5 46t129.5 130t95 190t68 238q-185 -151 -389 -151q-160 0 -232.5 97t-72.5 259q0 45 6 94q29 226 161.5 351t330.5 125q191 0 281.5 -119.5t90.5 -331.5q0 -94 -12 -186q-124 -863 -633 -863q-194 0 -309 115zM274 920 q0 -246 193 -246q98 0 200.5 53t174.5 119q14 83 14 170q0 161 -64.5 245.5t-181.5 84.5q-129 0 -218 -85t-111 -253q-7 -58 -7 -88z" />
<glyph unicode=":" horiz-adv-x="497" d="M59 84q0 53 32.5 83t84.5 30t84.5 -29.5t32.5 -81.5q0 -50 -32.5 -80.5t-84.5 -30.5q-53 0 -85 30t-32 79zM188 907q0 53 32.5 83t84.5 30t84.5 -29.5t32.5 -81.5q0 -50 -32.5 -80t-84.5 -30q-53 0 -85 29.5t-32 78.5z" />
<glyph unicode=";" horiz-adv-x="493" d="M-20 -205q82 39 124 86t54 109q-26 -13 -52 -13q-36 0 -55.5 23.5t-19.5 60.5q0 56 37.5 90.5t95.5 34.5q54 0 80 -34t26 -86q0 -102 -67 -192t-201 -144zM186 907q0 53 32.5 83t84.5 30t84.5 -29.5t32.5 -81.5q0 -50 -32.5 -80t-84.5 -30q-53 0 -85 29.5t-32 78.5z" />
<glyph unicode="&#x3c;" horiz-adv-x="1228" d="M41 563v78l1110 457l45 -115l-950 -381l952 -379l-47 -114z" />
<glyph unicode="=" horiz-adv-x="1228" d="M82 367v108h1065v-108h-1065zM82 692v109h1065v-109h-1065z" />
<glyph unicode="&#x3e;" horiz-adv-x="1228" d="M33 231l948 381l-948 381l45 113l1108 -455v-78l-1110 -454z" />
<glyph unicode="?" horiz-adv-x="1038" d="M180 1063q35 209 166.5 323.5t337.5 114.5q158 0 251 -79t93 -222q0 -74 -23.5 -139.5t-62.5 -115t-86.5 -95.5t-97 -90t-92 -88t-75 -100.5t-42.5 -118.5l-8 -47h-135l8 53q12 72 44.5 136t73.5 110.5t88 90t91 83.5t80.5 82t58.5 95t22 113q0 94 -56 145.5t-165 51.5 q-132 0 -219.5 -79.5t-112.5 -223.5h-139zM307 63q0 59 36.5 93t94.5 34q41 0 67.5 -24t26.5 -66q0 -55 -38.5 -90t-92.5 -35q-43 0 -68.5 24t-25.5 64z" />
<glyph unicode="@" horiz-adv-x="2015" d="M131 381q0 276 127 493.5t346 336t490 118.5q362 0 576 -188.5t214 -503.5q0 -179 -63.5 -326.5t-182.5 -235t-272 -87.5q-112 0 -167 51.5t-46 140.5q-122 -186 -305 -186q-138 0 -209.5 86t-71.5 231q0 106 35.5 202.5t100 171t163 119t215.5 44.5q176 0 301 -76 l-114 -475q-13 -50 -13 -84q0 -61 28.5 -91t94.5 -30q115 0 204 79.5t133 199.5t44 254q0 191 -86 326t-235.5 200.5t-350.5 65.5q-237 0 -426.5 -107.5t-296 -299t-106.5 -431.5q0 -220 100 -381t269 -241.5t385 -80.5q174 0 315 46t272 141l58 -86q-133 -104 -300 -157.5 t-347 -53.5q-185 0 -344 54t-278.5 155t-188 257t-68.5 349zM696 313q0 -100 42.5 -158.5t131.5 -58.5q103 0 182 85t111 204l80 313q-59 43 -176 43q-110 0 -196 -60t-130.5 -157t-44.5 -211z" />
<glyph unicode="A" horiz-adv-x="1275" d="M-61 0l766 1475h159l277 -1475h-162l-82 422h-575l-218 -422h-165zM387 559h492l-123 737z" />
<glyph unicode="B" horiz-adv-x="1245" d="M63 0l246 1475h486q395 0 395 -295q0 -96 -34 -181t-109.5 -149.5t-182.5 -81.5l-2 -6q76 -9 132.5 -36.5t88 -68.5t46 -86t14.5 -96q0 -127 -46 -220.5t-130 -148t-192 -80.5t-243 -26h-469zM238 137h360q187 0 289 93t102 247q0 215 -319 215h-340zM352 823h277 q66 0 121.5 9t108.5 31.5t90 57.5t59 91t22 129q0 105 -72.5 150.5t-212.5 45.5h-307z" />
<glyph unicode="C" horiz-adv-x="1296" d="M115 569q0 147 32 284t96 254.5t154 205.5t213.5 138t266.5 50q217 0 331 -120q90 -95 91 -251q0 -41 -7 -86h-151q3 27 3 52q0 260 -294 260q-171 0 -301 -101t-198 -274.5t-68 -392.5q0 -228 95 -348.5t267 -120.5q128 0 230 48t206 136l78 -106q-243 -222 -547 -222 q-128 0 -225 45.5t-155.5 127t-87.5 187.5t-29 234z" />
<glyph unicode="D" horiz-adv-x="1382" d="M61 0l248 1475h402q301 0 451.5 -133.5t150.5 -407.5q0 -85 -15 -199q-27 -199 -93.5 -340.5t-174.5 -228t-250 -126.5t-329 -40h-390zM238 137h262q284 0 438 150t199 448q16 109 16 189q0 207 -109 310t-344 103h-262z" />
<glyph unicode="E" d="M63 0l246 1475h893l-20 -136h-742l-88 -518h676l-20 -133h-676l-92 -553h757l-24 -135h-910z" />
<glyph unicode="F" horiz-adv-x="1081" d="M63 0l246 1475h850l-20 -136h-699l-88 -522h617l-23 -133h-616l-115 -684h-152z" />
<glyph unicode="G" horiz-adv-x="1419" d="M117 567q0 200 55.5 371.5t156.5 296t251 195.5t331 71q94 0 169.5 -17t125 -47t85.5 -71.5t51 -90t20 -102.5q2 -19 2 -39q0 -35 -6 -71h-158q3 25 3 48q0 108 -61 171q-74 78 -261 78q-112 0 -208.5 -40.5t-167 -112.5t-120.5 -168.5t-75 -210t-25 -236.5 q0 -228 101.5 -352.5t295.5 -124.5q232 0 416 164l57 339h-332l23 136h467l-92 -553q-226 -226 -564 -226q-114 0 -204.5 29t-153 81t-104 127t-60 163t-18.5 192z" />
<glyph unicode="H" horiz-adv-x="1384" d="M63 0l246 1475h152l-107 -637h748l106 637h154l-246 -1475h-153l116 696h-747l-117 -696h-152z" />
<glyph unicode="I" horiz-adv-x="483" d="M63 0l246 1475h152l-246 -1475h-152z" />
<glyph unicode="J" horiz-adv-x="778" d="M-63 31l57 129q96 -47 209 -47q100 0 150 52.5t73 192.5l186 1117h154l-191 -1149q-31 -180 -121.5 -265.5t-248.5 -85.5q-167 0 -268 56z" />
<glyph unicode="K" horiz-adv-x="1239" d="M63 0l246 1475h152l-107 -650h279l475 650h172l-522 -717l348 -758h-176l-318 696h-278l-119 -696h-152z" />
<glyph unicode="L" horiz-adv-x="1040" d="M63 0l246 1475h152l-221 -1338h667l-24 -137h-820z" />
<glyph unicode="M" horiz-adv-x="1716" d="M16 0l390 1475h180l211 -1246l628 1246h174l-100 -1475h-145l82 1210l-617 -1210h-127l-207 1210l-321 -1210h-148z" />
<glyph unicode="N" horiz-adv-x="1392" d="M63 0l246 1475h142l569 -1190l199 1190h151l-246 -1475h-137l-575 1192l-199 -1192h-150z" />
<glyph unicode="O" horiz-adv-x="1511" d="M117 539q0 126 16 215q40 242 147 411t263.5 252.5t353.5 83.5q250 0 394.5 -145t144.5 -416q0 -79 -17 -195q-31 -205 -100.5 -355.5t-170.5 -240t-223 -132t-268 -42.5q-254 0 -397 141t-143 423zM283 563q0 -223 100 -334.5t291 -111.5q229 0 377.5 156.5t201.5 480.5 q15 86 15 161q0 215 -98.5 328t-286.5 113q-229 0 -381 -156t-201 -446q-18 -105 -18 -191z" />
<glyph unicode="P" horiz-adv-x="1189" d="M63 0l246 1475h451q207 0 310.5 -93t103.5 -262q0 -118 -36 -214.5t-107 -168.5t-184 -111.5t-259 -39.5h-275l-98 -586h-152zM336 717h270q206 0 310 100t104 279q0 243 -291 243h-289z" />
<glyph unicode="Q" horiz-adv-x="1511" d="M115 539q0 126 16 215q30 182 99.5 324t169.5 234.5t227 140.5t274 48q249 0 391 -144.5t142 -416.5q0 -79 -17 -195q-41 -279 -150 -441.5t-294 -250.5l-4 -14l288 -96l-69 -136l-445 175q-51 -7 -88 -7q-254 0 -397 141t-143 423zM281 563q0 -223 100 -334.5 t291 -111.5q229 0 377.5 156.5t201.5 480.5q15 86 15 161q0 215 -98.5 328t-286.5 113q-229 0 -381 -156t-201 -446q-18 -105 -18 -191z" />
<glyph unicode="R" horiz-adv-x="1247" d="M63 0l246 1475h449q214 0 319 -91t105 -256q0 -162 -81 -290t-243 -201l221 -637h-166l-204 602q-67 -12 -156 -12h-240l-98 -590h-152zM336 721h264q203 0 313.5 100.5t110.5 278.5q0 239 -293 239h-293z" />
<glyph unicode="S" horiz-adv-x="1142" d="M-2 197l104 102q160 -193 383 -193q158 0 262.5 84t104.5 232q0 98 -63.5 157.5t-223.5 112.5q-100 33 -167 67.5t-114 80t-68 103t-21 134.5q0 126 67 223t183 149t262 52q295 0 436 -211l-103 -96q-63 88 -152.5 132t-191.5 44q-94 0 -168.5 -29t-122 -93.5 t-47.5 -157.5q0 -43 15 -78t37.5 -60t68 -50.5t87.5 -43.5t114 -45q185 -69 260.5 -148t75.5 -225q0 -215 -151.5 -340t-393.5 -125q-154 0 -276 60t-197 162z" />
<glyph unicode="T" horiz-adv-x="1126" d="M158 1337l20 138h1057l-21 -138h-450l-225 -1337h-154l225 1337h-452z" />
<glyph unicode="U" horiz-adv-x="1370" d="M131 397q0 57 14 150l154 928h152l-152 -910q-12 -67 -12 -127q0 -160 84 -242.5t239 -82.5q195 0 300 113t143 339l151 910h152l-154 -928q-47 -284 -204.5 -428t-417.5 -144q-213 0 -331 105.5t-118 316.5z" />
<glyph unicode="V" horiz-adv-x="1183" d="M178 1475h162l176 -1299l619 1299h157l-712 -1475h-185z" />
<glyph unicode="W" horiz-adv-x="1832" d="M178 1475h156l115 -1274l536 1274h152l112 -1276l533 1276h157l-624 -1475h-178l-113 1243l-530 -1243h-179z" />
<glyph unicode="X" horiz-adv-x="1150" d="M-68 0l578 754l-317 721h169l261 -603l454 603h172l-561 -734l322 -741h-176l-263 610l-460 -610h-179z" />
<glyph unicode="Y" horiz-adv-x="1116" d="M158 1475h172l250 -693l483 693h170l-604 -850l-105 -625h-153l104 625z" />
<glyph unicode="Z" horiz-adv-x="1159" d="M-23 0l19 104l997 1233h-778l21 138h1005l-10 -70l-1028 -1268h809l-25 -137h-1010z" />
<glyph unicode="[" horiz-adv-x="681" d="M35 -256l289 1731h362l-20 -123h-220l-247 -1485h219l-21 -123h-362z" />
<glyph unicode="\" horiz-adv-x="784" d="M121 1513h133l483 -1701h-127z" />
<glyph unicode="]" horiz-adv-x="679" d="M-6 -256l20 123h219l248 1485h-219l21 123h358l-289 -1731h-358z" />
<glyph unicode="^" horiz-adv-x="1370" d="M209 920l549 499h121l383 -506l-97 -73l-362 471l-524 -471z" />
<glyph unicode="_" horiz-adv-x="980" d="M-184 -467l18 113h987l-18 -113h-987z" />
<glyph unicode="`" horiz-adv-x="993" d="M246 1448l102 104l268 -284l-65 -72z" />
<glyph unicode="a" d="M72 403q0 203 66 361t189.5 247t284.5 89q205 0 312 -185l26 160h137l-180 -1075h-129l17 143q-60 -65 -156.5 -116.5t-218.5 -51.5q-174 0 -261 116t-87 312zM229 422q0 -150 56 -230.5t188 -80.5q163 0 338 180l80 475q-112 195 -285 195q-165 0 -271 -146t-106 -393z " />
<glyph unicode="b" d="M45 0l246 1475h145l-92 -555q169 180 377 180q167 0 252.5 -112t85.5 -310q0 -118 -21 -222t-65.5 -192.5t-108.5 -152.5t-155 -100t-201 -36q-64 0 -118.5 17t-90.5 44.5t-59.5 55t-36.5 55.5l-35 -147h-123zM240 289q31 -69 103 -122.5t173 -53.5q175 0 280 144 t105 396q0 151 -58.5 230.5t-170.5 79.5q-175 0 -353 -195z" />
<glyph unicode="c" horiz-adv-x="1030" d="M68 432q0 156 45.5 283.5t123.5 211t181 128.5t219 45q181 0 269 -103q69 -82 69 -215q0 -35 -4 -73h-140v21q-1 128 -47 182q-50 60 -163 59q-172 0 -284 -145t-112 -373q0 -165 65.5 -256t198.5 -91q89 0 159 27t175 94l60 -100q-194 -152 -432 -152q-181 0 -282 120.5 t-101 336.5z" />
<glyph unicode="d" horiz-adv-x="1165" d="M72 406q0 308 148 501t392 193q198 0 306 -172l90 547h145l-246 -1475h-129l17 150q-38 -41 -84 -76t-126.5 -67t-164.5 -32q-173 0 -260.5 117t-87.5 314zM229 432q0 -156 57.5 -238.5t190.5 -82.5q159 0 334 180l80 475q-112 195 -285 195q-164 0 -270.5 -144.5 t-106.5 -384.5z" />
<glyph unicode="e" horiz-adv-x="1005" d="M72 410q0 306 163 498t416 192q157 0 240.5 -79t83.5 -200q0 -44 -5.5 -79t-24.5 -75.5t-51 -71t-89 -61t-134 -50.5t-190 -33.5t-254 -16.5q0 -53 6.5 -97.5t24.5 -88.5t47.5 -74t79 -49t115.5 -19q83 0 155 28t166 91l64 -102q-196 -148 -420 -148q-186 0 -289.5 111.5 t-103.5 323.5zM238 553q186 11 306 32t181 55t82.5 72t21.5 93q0 69 -49.5 118.5t-154.5 49.5q-76 0 -140.5 -29.5t-106.5 -74.5t-73 -103t-46.5 -111t-20.5 -102z" />
<glyph unicode="f" horiz-adv-x="530" d="M72 0l159 950h-118l14 94l123 23l26 154q24 139 91.5 209.5t191.5 70.5q65 0 129 -18l-26 -115q-47 14 -93 14q-56 0 -94.5 -32.5t-52.5 -120.5l-25 -154h195l-21 -125h-194l-160 -950h-145z" />
<glyph unicode="g" d="M51 -360l49 124q163 -63 312 -63q93 0 156 19.5t104.5 63.5t64 105t37.5 154l17 104q-71 -74 -166.5 -119.5t-206.5 -45.5q-117 0 -196.5 57t-114.5 150.5t-35 218.5q0 108 21 208.5t65.5 189t107.5 153.5t153.5 103t198.5 38q111 0 188 -54.5t120 -127.5l26 157h135 l-178 -1061q-22 -131 -62 -218t-104 -136.5t-142.5 -69.5t-188.5 -20q-206 0 -361 70zM229 428q0 -313 244 -313q54 0 105 16t96.5 46t72 51.5t62.5 54.5l82 485q-14 30 -37.5 61t-58.5 62t-84 50.5t-103 19.5q-117 0 -204 -70.5t-131 -190t-44 -272.5z" />
<glyph unicode="h" horiz-adv-x="1107" d="M47 0l246 1475h145l-90 -553q178 178 373 178q262 0 262 -275q0 -59 -12 -127l-117 -698h-147l110 666q12 82 12 143q0 158 -159 158q-148 0 -346 -187l-131 -780h-146z" />
<glyph unicode="i" horiz-adv-x="462" d="M57 0l181 1075h143l-180 -1075h-144zM258 1354q0 46 34 76t81 30q40 0 63 -21.5t23 -58.5q0 -46 -33 -75t-84 -29q-37 0 -60.5 21.5t-23.5 56.5z" />
<glyph unicode="j" horiz-adv-x="462" d="M-225 -395l35 114q30 -12 88 -12q57 0 89 32t46 120l205 1216h143l-205 -1225q-23 -133 -83 -199.5t-183 -66.5q-84 0 -135 21zM258 1352q0 48 34 79t83 31q38 0 61 -21.5t23 -58.5q0 -48 -33 -78t-82 -30q-38 0 -62 21.5t-24 56.5z" />
<glyph unicode="k" horiz-adv-x="993" d="M45 0l246 1475h145l-133 -813h119l401 413h181l-469 -483l337 -592h-174l-299 532h-118l-91 -532h-145z" />
<glyph unicode="l" horiz-adv-x="444" d="M47 0l246 1475h145l-245 -1475h-146z" />
<glyph unicode="m" horiz-adv-x="1634" d="M45 0l180 1075h137l-26 -160q81 86 166.5 135.5t189.5 49.5q195 0 223 -187q87 87 175.5 137t191.5 50q227 0 227 -238q0 -51 -10 -119l-125 -743h-145l121 721q8 44 8 108q0 68 -31 102t-106 34q-131 0 -303 -179l-132 -786h-149l121 717q8 47 8 110q0 70 -30 104 t-103 34q-45 0 -92 -18.5t-92 -53t-69 -56t-58 -55.5l-132 -782h-145z" />
<glyph unicode="n" horiz-adv-x="1105" d="M45 0l180 1075h137l-26 -162q80 85 177.5 136t199.5 51q268 0 268 -275q0 -61 -12 -129l-117 -696h-147l110 666q10 68 10 137q0 164 -159 164q-51 0 -106 -20.5t-101.5 -52.5t-79.5 -60t-57 -54l-132 -780h-145z" />
<glyph unicode="o" horiz-adv-x="1144" d="M66 389q0 86 10 150q46 268 197 414.5t382 146.5q187 0 286 -108t99 -310q0 -78 -12 -154q-41 -267 -191.5 -410t-379.5 -143q-190 0 -290.5 108t-100.5 306zM221 412q0 -306 260 -306q146 0 252 109.5t141 321.5q11 59 11 120q0 154 -69 234t-191 80 q-146 0 -255.5 -113.5t-140.5 -320.5q-8 -60 -8 -125z" />
<glyph unicode="p" horiz-adv-x="1159" d="M-23 -410l248 1485h140l-29 -166q178 191 387 191q166 0 252 -111.5t86 -308.5q0 -148 -35.5 -275.5t-102 -223.5t-171 -151t-234.5 -55q-64 0 -119.5 16t-91.5 42t-58.5 50t-35.5 48l-90 -541h-146zM238 281q35 -65 106.5 -117.5t169.5 -52.5q178 0 282.5 144.5 t104.5 397.5q0 150 -57.5 230t-167.5 80q-176 0 -357 -193z" />
<glyph unicode="q" d="M72 408q0 202 66.5 359t191 245t288.5 88q199 0 308 -178l26 153h135l-247 -1485h-148l90 539q-34 -34 -76.5 -64.5t-121 -60t-160.5 -29.5q-176 0 -264 117.5t-88 315.5zM229 434q0 -323 236 -323q181 0 344 168l82 493q-12 24 -27.5 46.5t-41 49.5t-55 46.5t-71 33 t-86.5 13.5q-164 0 -272.5 -144t-108.5 -383z" />
<glyph unicode="r" horiz-adv-x="636" d="M45 0l180 1075h133l-30 -170q49 85 122 140t148 55q41 0 92 -19l-43 -147q-30 12 -86 12q-66 0 -132.5 -57.5t-111.5 -132.5l-127 -756h-145z" />
<glyph unicode="s" horiz-adv-x="950" d="M-25 145l91 97q64 -65 145.5 -104.5t169.5 -39.5q117 0 190.5 56.5t73.5 158.5q0 70 -49 107.5t-178 71.5q-156 41 -222.5 105.5t-66.5 176.5q0 143 115 234.5t303 91.5q226 0 352 -160l-90 -90q-55 63 -126.5 95t-145.5 32q-120 0 -185 -49.5t-65 -136.5 q0 -70 53 -108.5t178 -74.5q153 -42 220 -104.5t67 -173.5q0 -166 -120.5 -260.5t-311.5 -94.5q-132 0 -234.5 47t-163.5 123z" />
<glyph unicode="t" horiz-adv-x="571" d="M92 115q0 35 4 55l131 780h-129l15 94l135 29l71 293h121l-49 -291h182l-20 -125h-182l-127 -757q-4 -24 -4 -35q0 -35 18 -49.5t55 -14.5q41 0 109 27l12 -107q-86 -39 -174 -39q-80 0 -124 35.5t-44 104.5z" />
<glyph unicode="u" horiz-adv-x="1091" d="M84 233q0 37 12 123l121 719h148l-115 -684q-10 -65 -10 -125q0 -87 33.5 -122t125.5 -35q91 0 180 53t162 129l131 784h146l-180 -1075h-136l27 160q-176 -185 -377 -185q-268 0 -268 258z" />
<glyph unicode="v" horiz-adv-x="950" d="M102 1075h148l141 -919l457 919h149l-544 -1075h-172z" />
<glyph unicode="w" horiz-adv-x="1433" d="M123 1075h143l47 -895l398 885h145l115 -885l342 895h145l-434 -1075h-162l-112 858l-388 -858h-163z" />
<glyph unicode="x" horiz-adv-x="960" d="M-68 0l449 545l-258 530h156l202 -426l340 426h164l-430 -530l266 -545h-153l-211 444l-359 -444h-166z" />
<glyph unicode="y" horiz-adv-x="940" d="M-135 -389l37 113q82 -17 137 -17q64 0 109 43.5t108 171.5l37 78l-191 1075h154l139 -887l430 887h156l-561 -1116q-33 -66 -53 -104t-46.5 -84t-46.5 -70t-47 -50t-54 -37.5t-61 -19.5t-75 -8q-89 0 -172 25z" />
<glyph unicode="z" horiz-adv-x="868" d="M-29 0l17 100l674 848h-527l23 127h723l-15 -78l-698 -874h549l-21 -123h-725z" />
<glyph unicode="{" horiz-adv-x="720" d="M53 516l21 125h53q99 0 144 58.5t69 201.5l35 211q16 98 40.5 163.5t67 112t105 67t153.5 20.5h76l-18 -119h-84q-91 0 -133 -59t-64 -189l-47 -272q-10 -54 -21.5 -90t-34 -71.5t-59.5 -58.5t-92 -36q72 -11 101.5 -51t29.5 -107q0 -47 -14 -129l-33 -195 q-10 -65 -10 -102q0 -69 32 -101t111 -32h68l-21 -119h-71q-146 0 -207.5 46t-61.5 155q0 33 11 112l39 242q8 44 8 86q0 67 -31 99t-104 32h-58z" />
<glyph unicode="|" horiz-adv-x="1024" d="M446 -410v1885h132v-1885h-132z" />
<glyph unicode="}" horiz-adv-x="720" d="M-72 -256l19 119h84q90 0 132 59t64 189l47 272q10 54 21.5 90t34 71.5t59.5 58.5t92 36q-72 11 -101.5 51t-29.5 107q0 41 15 129l32 194q11 72 11 103q0 69 -32.5 101t-111.5 32h-67l20 119h72q146 0 207 -46t61 -155q0 -41 -10 -113l-39 -241q-8 -44 -8 -86 q0 -67 31 -99.5t104 -32.5h57l-20 -124h-54q-99 0 -143.5 -59t-68.5 -202l-35 -211q-32 -196 -111.5 -279t-255.5 -83h-76z" />
<glyph unicode="~" horiz-adv-x="1548" d="M98 535q242 176 437 176q65 0 138.5 -23t128 -51t119.5 -51t115 -23q81 0 160.5 34.5t189.5 109.5l60 -103q-232 -182 -426 -182q-68 0 -142.5 22.5t-129 50t-123.5 50t-127 22.5q-87 0 -161.5 -34.5t-180.5 -106.5z" />
<glyph unicode="&#xa1;" horiz-adv-x="620" d="M61 -399l82 493l117 576h117l-78 -576l-82 -493h-156zM258 975q0 55 38.5 90t92.5 35q43 0 68.5 -24t25.5 -64q0 -59 -36.5 -93t-94.5 -34q-41 0 -67.5 24t-26.5 66z" />
<glyph unicode="&#xa2;" horiz-adv-x="1044" d="M121 608q0 292 147 468.5t381 199.5l33 199h125l-33 -205q136 -22 202.5 -121.5t51.5 -259.5h-139q14 256 -211 256q-181 0 -289 -140.5t-108 -371.5q0 -151 67 -246.5t197 -95.5q88 0 155.5 27.5t163.5 93.5l64 -103q-161 -124 -338 -143l-35 -203h-127l33 205 q-161 24 -250.5 137.5t-89.5 302.5z" />
<glyph unicode="&#xa3;" horiz-adv-x="1015" d="M-14 0l20 123l98 8q93 91 150 177t57 179q0 68 -22 175h-189l19 114h147q-53 175 -53 271q0 127 68 226t175.5 150.5t231.5 51.5q250 0 359 -175l-99 -88q-93 129 -266 129q-144 0 -230.5 -75t-86.5 -209q0 -88 53 -281h334l-19 -114h-297q15 -77 15 -160q0 -56 -16 -109 t-47.5 -100.5t-59.5 -81t-70 -76.5h582l-23 -135h-831z" />
<glyph unicode="&#xa4;" horiz-adv-x="1171" d="M27 250l223 196q-47 74 -47 191q0 155 129 291l-156 198l80 74l158 -196q117 83 250 83q134 0 221 -81l223 194l57 -74l-223 -198q49 -77 49 -187q0 -158 -129 -297l158 -194l-84 -74l-158 197q-117 -84 -248 -84q-132 0 -223 84q-163 -150 -223 -197zM307 645 q0 -108 67.5 -180t172.5 -72q132 0 234 101.5t102 236.5q0 108 -66.5 178t-171.5 70q-133 0 -235.5 -98.5t-102.5 -235.5z" />
<glyph unicode="&#xa5;" horiz-adv-x="1134" d="M72 403l18 115h389l29 168h-389l18 113h334l-256 653h158l229 -614l442 614h156l-481 -653h338l-19 -113h-393l-29 -168h394l-19 -115h-393l-68 -403h-137l68 403h-389z" />
<glyph unicode="&#xa6;" horiz-adv-x="1024" d="M446 -410v832h132v-832h-132zM446 643v832h132v-832h-132z" />
<glyph unicode="&#xa7;" horiz-adv-x="1042" d="M80 137l86 84q127 -131 276 -131q59 0 109.5 16.5t87.5 58.5t37 103q0 36 -21 63.5t-55.5 44.5t-78.5 33.5t-90 30t-90 35t-78.5 46.5t-55.5 66.5t-21 94.5q0 101 71.5 183.5t211.5 105.5q-193 59 -193 217q0 129 105.5 221t286.5 92q102 0 183 -39.5t126 -107.5l-84 -78 q-59 56 -113 85.5t-125 29.5q-110 0 -172.5 -45t-62.5 -129q0 -64 50.5 -101t152.5 -72q151 -50 219.5 -105.5t68.5 -152.5q0 -62 -24 -114t-64 -85.5t-85.5 -55t-96.5 -31.5q94 -38 137 -88t43 -121q0 -133 -113.5 -224.5t-279.5 -91.5q-105 0 -199.5 42.5t-148.5 119.5z M322 713q0 -68 61 -112t158 -44q93 0 161 56.5t68 140.5q0 72 -60 114.5t-139 42.5q-106 0 -177.5 -55.5t-71.5 -142.5z" />
<glyph unicode="&#xa8;" horiz-adv-x="993" d="M211 1323q0 43 33 75t78 32q38 0 59.5 -22t21.5 -56q0 -44 -32.5 -74.5t-77.5 -30.5q-39 0 -60.5 21.5t-21.5 54.5zM586 1323q0 44 31 75.5t81 31.5q37 0 57.5 -21.5t20.5 -56.5q0 -43 -31.5 -74t-76.5 -31q-39 0 -60.5 21.5t-21.5 54.5z" />
<glyph unicode="&#xa9;" horiz-adv-x="1658" d="M104 737q0 209 98 378.5t267 264.5t373 95q214 0 382.5 -92.5t261.5 -259t93 -378.5q0 -157 -60.5 -297t-161.5 -237.5t-235.5 -154t-279.5 -56.5q-120 0 -228.5 29t-202 90t-161.5 147t-107 207t-39 264zM195 737q0 -127 34 -234t94 -183.5t141.5 -130t177 -79.5 t200.5 -26q124 0 242 49.5t208.5 135t145.5 208.5t55 260q0 143 -49.5 265.5t-136 208t-207 134t-258.5 48.5q-184 0 -332.5 -86t-231.5 -236t-83 -334zM506 741q0 175 90 289.5t254 114.5q122 0 198.5 -68t77.5 -192h-90q-17 174 -190 174q-115 0 -177.5 -85.5 t-62.5 -228.5q0 -160 64 -239.5t180 -79.5q124 0 229 98l51 -59q-120 -127 -290 -127q-164 0 -249 113t-85 290z" />
<glyph unicode="&#xaa;" horiz-adv-x="960" d="M143 819q0 71 13 141.5t43 139.5t74 121.5t112.5 85t151.5 32.5q73 0 135 -38t104 -97l21 117h112l-133 -782h-104l10 104q-121 -121 -272 -121q-127 0 -197 79.5t-70 217.5zM274 834q0 -211 172 -211q68 0 135.5 42.5t112.5 102.5l60 322q-88 143 -213 143 q-68 0 -120.5 -34.5t-84 -92.5t-47 -127t-15.5 -145z" />
<glyph unicode="&#xab;" horiz-adv-x="944" d="M70 510l10 55l352 293l68 -74l-271 -247l187 -248l-90 -76zM481 510l11 55l352 293l67 -74l-270 -247l186 -248l-90 -76z" />
<glyph unicode="&#xac;" horiz-adv-x="1228" d="M66 678v110h1097v-530h-112v420h-985z" />
<glyph unicode="&#xad;" horiz-adv-x="665" d="M39 492l24 143h531l-25 -143h-530z" />
<glyph unicode="&#xae;" horiz-adv-x="862" d="M156 1122q0 156 103 259.5t255 103.5q161 0 262 -101t101 -262q0 -151 -108 -255.5t-255 -104.5q-159 0 -258.5 96t-99.5 264zM225 1122q0 -140 80 -216.5t209 -76.5q116 0 203.5 85.5t87.5 207.5q0 132 -80.5 213.5t-210.5 81.5q-123 0 -206 -84t-83 -211zM385 946v359 h139q66 0 98.5 -29.5t32.5 -79.5q0 -69 -65 -98l86 -152h-64l-77 137h-93v-137h-57zM442 1128h66q45 0 66.5 16t21.5 52q0 61 -84 61h-70v-129z" />
<glyph unicode="&#xaf;" horiz-adv-x="993" d="M193 1272l20 119h543l-21 -119h-542z" />
<glyph unicode="&#xb0;" horiz-adv-x="636" d="M172 1350q0 97 70 165t168 68q97 0 166 -68t69 -165q0 -100 -68.5 -168t-166.5 -68q-100 0 -169 67.5t-69 168.5zM258 1352q0 -69 43.5 -114.5t108.5 -45.5t107 46t42 114q0 65 -41 107t-108 42q-66 0 -109 -42t-43 -107z" />
<glyph unicode="&#xb1;" horiz-adv-x="1228" d="M78 551v117h475v477h121v-477h475v-117h-475v-436h473v-115h-1065v115h471v436h-475z" />
<glyph unicode="&#xb2;" horiz-adv-x="610" d="M72 819l14 88l324 293q77 72 95 96q32 43 32 97q0 41 -26.5 62.5t-74.5 21.5q-94 0 -233 -91l-37 80q66 53 146.5 87t158.5 34q93 0 146 -44t53 -122q0 -67 -36 -128.5t-112 -129.5l-270 -237h346l-18 -107h-508z" />
<glyph unicode="&#xb3;" horiz-adv-x="634" d="M74 907l71 80q45 -40 88.5 -59t106.5 -19q87 0 133.5 38t46.5 108q0 98 -160 98q-10 0 -35 -1t-26 -1l18 106q100 2 159 39.5t59 110.5q0 76 -111 76q-94 0 -186 -53l-29 83q123 74 258 74q93 0 145 -39t52 -114q0 -77 -50.5 -135t-134.5 -82q87 -6 126.5 -48.5 t39.5 -107.5q0 -119 -88.5 -187.5t-222.5 -68.5q-174 0 -260 102z" />
<glyph unicode="&#xb4;" horiz-adv-x="993" d="M322 1280l325 272l82 -106l-342 -250z" />
<glyph unicode="&#xb5;" horiz-adv-x="1169" d="M164 -410v1485h147v-665q0 -314 256 -314q61 0 112.5 25t84 64.5t51.5 84.5t23 88v717h149v-1075h-137v160q-88 -180 -287 -180q-91 0 -149.5 30t-102.5 94v-514h-147z" />
<glyph unicode="&#xb6;" horiz-adv-x="1075" d="M166 1051q0 186 131.5 305t335.5 119h420l-246 -1475h-131l229 1368h-190l-230 -1368h-131l125 750q-150 6 -231.5 86.5t-81.5 214.5z" />
<glyph unicode="&#xb7;" horiz-adv-x="561" d="M164 690q0 53 32.5 83t84.5 30t84 -29.5t32 -81.5q0 -50 -32 -80t-84 -30q-53 0 -85 29.5t-32 78.5z" />
<glyph unicode="&#xb8;" horiz-adv-x="993" d="M215 -391l37 84q68 -27 123 -27q104 0 104 84q0 33 -29 45t-94 12h-30l80 209h92l-47 -129q62 -2 103.5 -29.5t41.5 -90.5q0 -94 -62 -143.5t-165 -49.5q-87 0 -154 35z" />
<glyph unicode="&#xb9;" horiz-adv-x="497" d="M166 1364l2 88q67 12 139.5 46t124.5 79h86l-127 -758h-121l99 588q-113 -41 -203 -43z" />
<glyph unicode="&#xba;" horiz-adv-x="946" d="M164 846q0 225 121.5 360t312.5 135q137 0 216 -86t79 -239q0 -223 -123.5 -358.5t-308.5 -135.5q-141 0 -219 84.5t-78 239.5zM289 860q0 -113 51.5 -169t138.5 -56q123 0 205 94t82 272q0 114 -50.5 172t-135.5 58q-125 0 -208 -96.5t-83 -274.5z" />
<glyph unicode="&#xbb;" horiz-adv-x="948" d="M33 287l270 248l-186 247l90 76l256 -297l-10 -55l-353 -293zM449 287l270 248l-187 247l91 76l256 -297l-11 -55l-352 -293z" />
<glyph unicode="&#xbc;" horiz-adv-x="1660" d="M205 -2l1114 1477h127l-1114 -1477h-127zM248 1262l2 88q67 12 139.5 46t124.5 79h86l-127 -758h-121l99 588q-113 -41 -203 -43zM872 154l19 98l416 506h163l-84 -502h87l-19 -102h-86l-25 -154h-118l24 154h-377zM1012 256h256l63 387z" />
<glyph unicode="&#xbd;" horiz-adv-x="1660" d="M70 -2l1114 1477h127l-1114 -1477h-127zM154 1262l2 88q67 12 139.5 46t124.5 79h86l-127 -758h-121l98 588q-114 -41 -202 -43zM844 0l14 88l324 293q77 71 94 94q33 44 33 98q0 41 -26.5 62.5t-74.5 21.5q-95 0 -233 -90l-37 80q66 53 146.5 87t158.5 34q93 0 146 -44 t53 -122q0 -67 -36 -128.5t-112 -129.5l-270 -238h346l-18 -106h-508z" />
<glyph unicode="&#xbe;" horiz-adv-x="1660" d="M143 805l72 80q45 -40 88.5 -59t106.5 -19q87 0 133.5 38t46.5 107q0 99 -160 99q-9 0 -34.5 -1t-26.5 -1l18 106q100 2 158.5 39.5t58.5 110.5q0 42 -28 58.5t-82 16.5q-95 0 -187 -53l-28 84q123 74 258 74q92 0 144 -39.5t52 -114.5q0 -77 -50 -135.5t-134 -81.5 q87 -6 126.5 -48.5t39.5 -107.5q0 -119 -89 -187.5t-223 -68.5q-173 0 -260 103zM254 -2l1114 1477h127l-1114 -1477h-127zM872 154l19 98l416 506h163l-84 -502h87l-19 -102h-86l-25 -154h-118l24 154h-377zM1012 256h256l63 387z" />
<glyph unicode="&#xbf;" horiz-adv-x="1038" d="M27 -125q0 74 23.5 139.5t62.5 115.5t86.5 95.5t97 89.5t92 88.5t75 101t42.5 118.5l8 47h135l-8 -54q-12 -72 -44.5 -136t-73.5 -110.5t-88 -90t-91.5 -83.5t-81 -82t-58.5 -95t-22 -113q0 -94 56 -145.5t165 -51.5q132 0 219.5 79.5t112.5 223.5h139 q-35 -209 -166.5 -323.5t-336.5 -114.5q-158 0 -251 79t-93 222zM522 975q0 55 38.5 90t92.5 35q43 0 69 -24t26 -64q0 -59 -37 -93t-95 -34q-41 0 -67.5 24t-26.5 66z" />
<glyph unicode="&#xc0;" horiz-adv-x="1275" d="M-61 0l766 1475h159l277 -1475h-162l-82 422h-575l-218 -422h-165zM387 559h492l-123 737zM582 1710l69 129l330 -205l-59 -88z" />
<glyph unicode="&#xc1;" horiz-adv-x="1275" d="M-61 0l766 1475h159l277 -1475h-162l-82 422h-575l-218 -422h-165zM387 559h492l-123 737zM610 1642l367 205l59 -129l-374 -172z" />
<glyph unicode="&#xc2;" horiz-adv-x="1275" d="M-61 0l766 1475h159l277 -1475h-162l-82 422h-575l-218 -422h-165zM387 559h492l-123 737zM571 1618l230 203h106l154 -203l-72 -64l-158 148l-202 -148z" />
<glyph unicode="&#xc3;" horiz-adv-x="1275" d="M-61 0l766 1475h159l277 -1475h-162l-82 422h-575l-218 -422h-165zM387 559h492l-123 737zM500 1630q45 82 89 118t95 36q46 0 121.5 -34t114.5 -34q29 0 48.5 14.5t47.5 57.5l74 -33q-69 -153 -181 -153q-52 0 -133.5 33.5t-105.5 33.5q-25 0 -44 -15t-51 -59z" />
<glyph unicode="&#xc4;" horiz-adv-x="1275" d="M-61 0l766 1475h159l277 -1475h-162l-82 422h-575l-218 -422h-165zM387 559h492l-123 737zM532 1669q0 43 33 75t78 32q38 0 60 -22t22 -56q0 -43 -33.5 -74t-77.5 -31q-39 0 -60.5 21.5t-21.5 54.5zM907 1669q0 44 32 75.5t81 31.5q37 0 57.5 -21.5t20.5 -56.5 q0 -42 -32 -73.5t-77 -31.5q-39 0 -60.5 21.5t-21.5 54.5z" />
<glyph unicode="&#xc5;" horiz-adv-x="1275" d="M-61 0l761 1466q-36 15 -56.5 50t-20.5 81q0 91 65 153t154 62q72 0 117 -42t45 -109t-38 -119t-100 -76l275 -1466h-162l-82 422h-575l-218 -422h-165zM389 565h490l-125 723zM721 1610q0 -35 20.5 -54.5t55.5 -19.5q50 0 79 32t29 83q0 71 -78 71q-49 0 -77.5 -31 t-28.5 -81z" />
<glyph unicode="&#xc6;" horiz-adv-x="1935" d="M-70 0l1031 1475h1015l-22 -142h-740l-86 -508h674l-22 -141h-674l-92 -545h755l-22 -139h-909l73 444h-493l-309 -444h-179zM506 582h430l125 755h-35z" />
<glyph unicode="&#xc7;" horiz-adv-x="1296" d="M113 569q0 147 32 284t96.5 254.5t154.5 205.5t214 138t267 50q218 0 331.5 -120t83.5 -337h-151q6 51 0 95.5t-26 85t-53.5 69t-87.5 45.5t-124 17q-171 0 -301 -101t-198 -274.5t-68 -392.5q0 -228 95 -348.5t267 -120.5q128 0 230 48t206 136l72 -104 q-227 -208 -502 -222l-35 -94q63 -2 104.5 -30t41.5 -91q0 -94 -61 -143t-166 -49q-46 0 -89.5 11.5t-62.5 23.5l35 84q68 -27 121 -27q108 0 108 84q0 33 -30 45t-93 12h-30l63 174q-114 8 -200.5 57t-139 129.5t-78.5 182t-26 223.5z" />
<glyph unicode="&#xc8;" d="M63 0l246 1475h893l-20 -136h-742l-88 -518h676l-20 -133h-676l-92 -553h757l-24 -135h-910zM553 1710l70 129l329 -205l-59 -88z" />
<glyph unicode="&#xc9;" d="M63 0l246 1475h893l-20 -136h-742l-88 -518h676l-20 -133h-676l-92 -553h757l-24 -135h-910zM580 1642l366 205l60 -129l-375 -172z" />
<glyph unicode="&#xca;" d="M63 0l246 1475h893l-20 -136h-742l-88 -518h676l-20 -133h-676l-92 -553h757l-24 -135h-910zM547 1618l229 203h107l153 -203l-71 -64l-158 148l-203 -148z" />
<glyph unicode="&#xcb;" d="M63 0l246 1475h893l-20 -136h-742l-88 -518h676l-20 -133h-676l-92 -553h757l-24 -135h-910zM526 1669q0 43 33 75t78 32q38 0 60 -22t22 -56q0 -43 -33.5 -74t-77.5 -31q-39 0 -60.5 21.5t-21.5 54.5zM901 1669q0 44 32 75.5t81 31.5q37 0 57.5 -21.5t20.5 -56.5 q0 -42 -32 -73.5t-77 -31.5q-39 0 -60.5 21.5t-21.5 54.5z" />
<glyph unicode="&#xcc;" horiz-adv-x="483" d="M63 0l246 1475h152l-246 -1475h-152zM158 1710l69 129l330 -205l-59 -88z" />
<glyph unicode="&#xcd;" horiz-adv-x="483" d="M63 0l246 1475h152l-246 -1475h-152zM197 1642l366 205l60 -129l-375 -172z" />
<glyph unicode="&#xce;" horiz-adv-x="483" d="M63 0l246 1475h152l-246 -1475h-152zM170 1618l229 203h107l153 -203l-71 -64l-158 148l-203 -148z" />
<glyph unicode="&#xcf;" horiz-adv-x="483" d="M63 0l246 1475h152l-246 -1475h-152zM133 1669q0 43 33 75t78 32q38 0 60 -22t22 -56q0 -43 -33.5 -74t-77.5 -31q-39 0 -60.5 21.5t-21.5 54.5zM508 1669q0 44 32 75.5t81 31.5q37 0 57 -21.5t20 -56.5q0 -42 -31.5 -73.5t-76.5 -31.5q-39 0 -60.5 21.5t-21.5 54.5z" />
<glyph unicode="&#xd0;" horiz-adv-x="1425" d="M68 686l22 125h156l112 664h402q301 0 451.5 -133.5t150.5 -407.5q0 -93 -14 -199q-27 -199 -93.5 -340.5t-175 -228t-250.5 -126.5t-329 -40h-389l114 686h-157zM287 137h262q284 0 438 150t199 448q16 109 16 189q0 207 -108.5 310t-343.5 103h-263l-88 -526h387 l-22 -125h-385z" />
<glyph unicode="&#xd1;" horiz-adv-x="1392" d="M63 0l246 1475h142l569 -1190l199 1190h151l-246 -1475h-137l-575 1192l-199 -1192h-150zM580 1630q45 82 89 118t95 36q46 0 121 -34t114 -34q29 0 49 14.5t48 57.5l73 -33q-69 -153 -180 -153q-52 0 -133.5 33.5t-105.5 33.5q-25 0 -44 -15t-51 -59z" />
<glyph unicode="&#xd2;" horiz-adv-x="1511" d="M117 539q0 126 16 215q40 242 147 411t263.5 252.5t353.5 83.5q250 0 394.5 -145t144.5 -416q0 -79 -17 -195q-31 -205 -100.5 -355.5t-170.5 -240t-223 -132t-268 -42.5q-254 0 -397 141t-143 423zM283 563q0 -223 100 -334.5t291 -111.5q229 0 377.5 156.5t201.5 480.5 q15 86 15 161q0 215 -98.5 328t-286.5 113q-229 0 -381 -156t-201 -446q-18 -105 -18 -191zM700 1710l70 129l330 -205l-60 -88z" />
<glyph unicode="&#xd3;" horiz-adv-x="1511" d="M117 539q0 126 16 215q40 242 147 411t263.5 252.5t353.5 83.5q250 0 394.5 -145t144.5 -416q0 -79 -17 -195q-31 -205 -100.5 -355.5t-170.5 -240t-223 -132t-268 -42.5q-254 0 -397 141t-143 423zM283 563q0 -223 100 -334.5t291 -111.5q229 0 377.5 156.5t201.5 480.5 q15 86 15 161q0 215 -98.5 328t-286.5 113q-229 0 -381 -156t-201 -446q-18 -105 -18 -191zM709 1642l366 205l60 -129l-375 -172z" />
<glyph unicode="&#xd4;" horiz-adv-x="1511" d="M117 539q0 126 16 215q40 242 147 411t263.5 252.5t353.5 83.5q250 0 394.5 -145t144.5 -416q0 -79 -17 -195q-31 -205 -100.5 -355.5t-170.5 -240t-223 -132t-268 -42.5q-254 0 -397 141t-143 423zM283 563q0 -223 100 -334.5t291 -111.5q229 0 377.5 156.5t201.5 480.5 q15 86 15 161q0 215 -98.5 328t-286.5 113q-229 0 -381 -156t-201 -446q-18 -105 -18 -191zM705 1618l229 203h106l154 -203l-72 -64l-157 148l-203 -148z" />
<glyph unicode="&#xd5;" horiz-adv-x="1511" d="M117 539q0 126 16 215q40 242 147 411t263.5 252.5t353.5 83.5q250 0 394.5 -145t144.5 -416q0 -79 -17 -195q-31 -205 -100.5 -355.5t-170.5 -240t-223 -132t-268 -42.5q-254 0 -397 141t-143 423zM283 563q0 -223 100 -334.5t291 -111.5q229 0 377.5 156.5t201.5 480.5 q15 86 15 161q0 215 -98.5 328t-286.5 113q-229 0 -381 -156t-201 -446q-18 -105 -18 -191zM662 1630q45 82 89 118t95 36q46 0 121 -34t114 -34q29 0 49 14.5t48 57.5l73 -33q-69 -153 -180 -153q-52 0 -134 33.5t-106 33.5q-25 0 -43 -14.5t-51 -59.5z" />
<glyph unicode="&#xd6;" horiz-adv-x="1511" d="M117 539q0 126 16 215q40 242 147 411t263.5 252.5t353.5 83.5q250 0 394.5 -145t144.5 -416q0 -79 -17 -195q-31 -205 -100.5 -355.5t-170.5 -240t-223 -132t-268 -42.5q-254 0 -397 141t-143 423zM283 563q0 -223 100 -334.5t291 -111.5q229 0 377.5 156.5t201.5 480.5 q15 86 15 161q0 215 -98.5 328t-286.5 113q-229 0 -381 -156t-201 -446q-18 -105 -18 -191zM680 1669q0 43 33 75t78 32q38 0 59.5 -22t21.5 -56q0 -43 -33 -74t-77 -31q-39 0 -60.5 21.5t-21.5 54.5zM1055 1669q0 44 32 75.5t80 31.5q37 0 57.5 -21.5t20.5 -56.5 q0 -42 -31.5 -73.5t-76.5 -31.5q-39 0 -60.5 21.5t-21.5 54.5z" />
<glyph unicode="&#xd7;" horiz-adv-x="1228" d="M193 262l339 336l-339 336l81 86l338 -336l338 336l84 -90l-338 -334l338 -338l-82 -84l-338 336l-338 -336z" />
<glyph unicode="&#xd8;" horiz-adv-x="1511" d="M117 539q0 126 16 215q40 242 147 411t263.5 252.5t353.5 83.5q76 0 154 -16l53 117h129l-70 -156q130 -61 201.5 -190t71.5 -316q0 -79 -17 -195q-31 -205 -100.5 -355.5t-170.5 -240t-223 -132t-268 -42.5q-73 0 -153 17l-64 -142h-129l80 177q-132 58 -203 186.5 t-71 325.5zM283 563q0 -291 172 -395l532 1178q-55 10 -104 10q-229 0 -381 -156t-201 -446q-18 -105 -18 -191zM565 127q41 -10 109 -10q229 0 377.5 156.5t201.5 480.5q15 86 15 161q0 284 -170 388z" />
<glyph unicode="&#xd9;" horiz-adv-x="1370" d="M131 397q0 57 14 150l154 928h152l-152 -910q-12 -67 -12 -127q0 -160 84 -242.5t239 -82.5q195 0 300 113t143 339l151 910h152l-154 -928q-47 -284 -204.5 -428t-417.5 -144q-213 0 -331 105.5t-118 316.5zM641 1710l70 129l329 -205l-59 -88z" />
<glyph unicode="&#xda;" horiz-adv-x="1370" d="M131 397q0 57 14 150l154 928h152l-152 -910q-12 -67 -12 -127q0 -160 84 -242.5t239 -82.5q195 0 300 113t143 339l151 910h152l-154 -928q-47 -284 -204.5 -428t-417.5 -144q-213 0 -331 105.5t-118 316.5zM641 1642l367 205l59 -129l-375 -172z" />
<glyph unicode="&#xdb;" horiz-adv-x="1370" d="M131 397q0 57 14 150l154 928h152l-152 -910q-12 -67 -12 -127q0 -160 84 -242.5t239 -82.5q195 0 300 113t143 339l151 910h152l-154 -928q-47 -284 -204.5 -428t-417.5 -144q-213 0 -331 105.5t-118 316.5zM602 1618l229 203h107l154 -203l-72 -64l-158 148l-203 -148z " />
<glyph unicode="&#xdc;" horiz-adv-x="1370" d="M131 397q0 57 14 150l154 928h152l-152 -910q-12 -67 -12 -127q0 -160 84 -242.5t239 -82.5q195 0 300 113t143 339l151 910h152l-154 -928q-47 -284 -204.5 -428t-417.5 -144q-213 0 -331 105.5t-118 316.5zM584 1669q0 43 32.5 75t77.5 32q38 0 60 -22t22 -56 q0 -43 -33 -74t-77 -31q-39 0 -60.5 21.5t-21.5 54.5zM958 1669q0 44 32 75.5t81 31.5q37 0 57.5 -21.5t20.5 -56.5q0 -42 -32 -73.5t-77 -31.5q-39 0 -60.5 21.5t-21.5 54.5z" />
<glyph unicode="&#xdd;" horiz-adv-x="1116" d="M158 1475h172l250 -693l483 693h170l-604 -850l-105 -625h-153l104 625zM514 1642l367 205l59 -129l-375 -172z" />
<glyph unicode="&#xde;" horiz-adv-x="1181" d="M47 0l246 1475h151l-38 -244h296q87 0 159 -19t130 -59t90.5 -110.5t32.5 -165.5q0 -259 -158 -397t-426 -138h-274l-57 -342h-152zM276 471h265q210 0 316 99.5t106 281.5q0 120 -71 179t-222 59h-289z" />
<glyph unicode="&#xdf;" horiz-adv-x="1097" d="M72 0l159 950h-120l14 94l125 25l6 35q16 97 59 172t103.5 121t133 69t153.5 23q158 0 238.5 -74t80.5 -211q0 -168 -101 -285t-266 -145q156 -22 238 -106t82 -224q0 -210 -124.5 -339.5t-322.5 -129.5q-59 0 -120 17.5t-95 48.5l60 102q77 -45 168 -45q123 0 203.5 88 t80.5 252q0 124 -81 185.5t-240 83.5l20 122q98 11 174.5 49t126.5 115t50 183q0 186 -203 186q-119 0 -186 -72t-91 -215l-180 -1075h-145z" />
<glyph unicode="&#xe0;" d="M72 403q0 203 66 361t189.5 247t284.5 89q205 0 312 -185l26 160h137l-180 -1075h-129l17 143q-60 -65 -156.5 -116.5t-218.5 -51.5q-174 0 -261 116t-87 312zM229 422q0 -150 56 -230.5t188 -80.5q163 0 338 180l80 475q-112 195 -285 195q-165 0 -271 -146t-106 -393z M522 1448l103 104l268 -284l-66 -72z" />
<glyph unicode="&#xe1;" d="M72 403q0 203 66 361t189.5 247t284.5 89q205 0 312 -185l26 160h137l-180 -1075h-129l17 143q-60 -65 -156.5 -116.5t-218.5 -51.5q-174 0 -261 116t-87 312zM229 422q0 -150 56 -230.5t188 -80.5q163 0 338 180l80 475q-112 195 -285 195q-165 0 -271 -146t-106 -393z M528 1280l326 272l82 -106l-342 -250z" />
<glyph unicode="&#xe2;" d="M72 403q0 203 66 361t189.5 247t284.5 89q205 0 312 -185l26 160h137l-180 -1075h-129l17 143q-60 -65 -156.5 -116.5t-218.5 -51.5q-174 0 -261 116t-87 312zM229 422q0 -150 56 -230.5t188 -80.5q163 0 338 180l80 475q-112 195 -285 195q-165 0 -271 -146t-106 -393z M426 1251l262 303h105l161 -303l-84 -55l-149 231l-227 -229z" />
<glyph unicode="&#xe3;" d="M72 403q0 203 66 361t189.5 247t284.5 89q205 0 312 -185l26 160h137l-180 -1075h-129l17 143q-60 -65 -156.5 -116.5t-218.5 -51.5q-174 0 -261 116t-87 312zM229 422q0 -150 56 -230.5t188 -80.5q163 0 338 180l80 475q-112 195 -285 195q-165 0 -271 -146t-106 -393z M401 1274q44 82 89 117.5t96 35.5q46 0 121 -33.5t114 -33.5q29 0 49 14.5t48 57.5l73 -33q-70 -154 -180 -154q-52 0 -134 34t-106 34q-25 0 -43 -14.5t-51 -59.5z" />
<glyph unicode="&#xe4;" d="M72 403q0 203 66 361t189.5 247t284.5 89q205 0 312 -185l26 160h137l-180 -1075h-129l17 143q-60 -65 -156.5 -116.5t-218.5 -51.5q-174 0 -261 116t-87 312zM229 422q0 -150 56 -230.5t188 -80.5q163 0 338 180l80 475q-112 195 -285 195q-165 0 -271 -146t-106 -393z M418 1323q0 43 32.5 75t77.5 32q38 0 60 -22t22 -56q0 -44 -32.5 -74.5t-77.5 -30.5q-39 0 -60.5 21.5t-21.5 54.5zM793 1323q0 44 31 75.5t81 31.5q37 0 57.5 -21.5t20.5 -56.5q0 -43 -32 -74t-77 -31q-38 0 -59.5 21.5t-21.5 54.5z" />
<glyph unicode="&#xe5;" d="M72 403q0 203 66 361t189.5 247t284.5 89q205 0 312 -185l26 160h137l-180 -1075h-129l17 143q-60 -65 -156.5 -116.5t-218.5 -51.5q-174 0 -261 116t-87 312zM229 422q0 -150 56 -230.5t188 -80.5q163 0 338 180l80 475q-112 195 -285 195q-165 0 -271 -146t-106 -393z M520 1327q0 91 65 152t156 61q70 0 114 -41t44 -108q0 -92 -64 -151.5t-155 -59.5q-73 0 -116.5 39.5t-43.5 107.5zM621 1341q0 -35 20 -54t55 -19q47 0 76 32t29 80q0 33 -20 51.5t-56 18.5q-47 0 -75.5 -30.5t-28.5 -78.5z" />
<glyph unicode="&#xe6;" horiz-adv-x="1777" d="M72 395q0 203 66 363t189.5 251t284.5 91q205 0 312 -185l26 160h137l-28 -176q54 87 157.5 144t215.5 57q151 0 233 -79t82 -200q0 -64 -12 -111t-56.5 -100.5t-122.5 -88t-219.5 -59.5t-337.5 -28q0 -48 6.5 -90.5t24.5 -87.5t47.5 -77t79.5 -52.5t115 -20.5 q84 0 156 27.5t165 89.5l56 -104q-191 -144 -394 -144q-135 0 -236.5 64t-135.5 164q-207 -228 -457 -228q-175 0 -264.5 113t-89.5 307zM229 432q0 -66 12 -120.5t38.5 -100.5t75.5 -72t116 -26q162 0 342 184l78 469q-112 195 -285 195q-164 0 -270.5 -144.5 t-106.5 -384.5zM1010 549q153 9 261 25.5t172 38t100 53t47.5 63t11.5 76.5q0 68 -47.5 118t-145.5 50q-76 0 -141 -29t-109 -74.5t-77 -103t-50 -112.5t-22 -105z" />
<glyph unicode="&#xe7;" horiz-adv-x="1030" d="M68 432q0 58 6 111q19 157 88 277t170.5 188t226.5 86q41 6 84 6q182 0 266.5 -102.5t61.5 -288.5h-140q4 142 -48 200t-167 58q-149 0 -253.5 -110.5t-129.5 -293.5q-8 -70 -8 -110q0 -165 65.5 -256t198.5 -91q25 0 86 9q58 10 114 36t134 76l60 -100 q-144 -115 -318 -143q-40 -6 -82 -9l-32 -88q62 -2 103.5 -29.5t41.5 -90.5q0 -70 -35.5 -116t-99.5 -65q-40 -12 -92 -12q-87 0 -154 35l37 84q68 -27 123 -27q104 0 104 84q0 33 -29 45t-94 12h-30l65 173q-154 19 -238.5 137.5t-84.5 314.5z" />
<glyph unicode="&#xe8;" horiz-adv-x="1005" d="M72 410q0 306 163 498t416 192q157 0 240.5 -79t83.5 -200q0 -44 -5.5 -79t-24.5 -75.5t-51 -71t-89 -61t-134 -50.5t-190 -33.5t-254 -16.5q0 -53 6.5 -97.5t24.5 -88.5t47.5 -74t79 -49t115.5 -19q83 0 155 28t166 91l64 -102q-196 -148 -420 -148q-186 0 -289.5 111.5 t-103.5 323.5zM238 553q186 11 306 32t181 55t82.5 72t21.5 93q0 69 -49.5 118.5t-154.5 49.5q-76 0 -140.5 -29.5t-106.5 -74.5t-73 -103t-46.5 -111t-20.5 -102zM416 1448l102 104l268 -284l-65 -72z" />
<glyph unicode="&#xe9;" horiz-adv-x="1005" d="M72 410q0 306 163 498t416 192q157 0 240.5 -79t83.5 -200q0 -44 -5.5 -79t-24.5 -75.5t-51 -71t-89 -61t-134 -50.5t-190 -33.5t-254 -16.5q0 -53 6.5 -97.5t24.5 -88.5t47.5 -74t79 -49t115.5 -19q83 0 155 28t166 91l64 -102q-196 -148 -420 -148q-186 0 -289.5 111.5 t-103.5 323.5zM238 553q186 11 306 32t181 55t82.5 72t21.5 93q0 69 -49.5 118.5t-154.5 49.5q-76 0 -140.5 -29.5t-106.5 -74.5t-73 -103t-46.5 -111t-20.5 -102zM500 1280l325 272l82 -106l-342 -250z" />
<glyph unicode="&#xea;" horiz-adv-x="1005" d="M72 410q0 306 163 498t416 192q157 0 240.5 -79t83.5 -200q0 -44 -5.5 -79t-24.5 -75.5t-51 -71t-89 -61t-134 -50.5t-190 -33.5t-254 -16.5q0 -53 6.5 -97.5t24.5 -88.5t47.5 -74t79 -49t115.5 -19q83 0 155 28t166 91l64 -102q-196 -148 -420 -148q-186 0 -289.5 111.5 t-103.5 323.5zM238 553q186 11 306 32t181 55t82.5 72t21.5 93q0 69 -49.5 118.5t-154.5 49.5q-76 0 -140.5 -29.5t-106.5 -74.5t-73 -103t-46.5 -111t-20.5 -102zM420 1243l262 303h104l162 -303l-84 -55l-149 231l-228 -229z" />
<glyph unicode="&#xeb;" horiz-adv-x="1005" d="M72 410q0 306 163 498t416 192q157 0 240.5 -79t83.5 -200q0 -44 -5.5 -79t-24.5 -75.5t-51 -71t-89 -61t-134 -50.5t-190 -33.5t-254 -16.5q0 -53 6.5 -97.5t24.5 -88.5t47.5 -74t79 -49t115.5 -19q83 0 155 28t166 91l64 -102q-196 -148 -420 -148q-186 0 -289.5 111.5 t-103.5 323.5zM238 553q186 11 306 32t181 55t82.5 72t21.5 93q0 69 -49.5 118.5t-154.5 49.5q-76 0 -140.5 -29.5t-106.5 -74.5t-73 -103t-46.5 -111t-20.5 -102zM414 1323q0 43 32.5 75t77.5 32q38 0 60 -22t22 -56q0 -44 -32.5 -74.5t-77.5 -30.5q-39 0 -60.5 21.5 t-21.5 54.5zM788 1323q0 44 31.5 75.5t81.5 31.5q37 0 57.5 -21.5t20.5 -56.5q0 -43 -32 -74t-77 -31q-39 0 -60.5 21.5t-21.5 54.5z" />
<glyph unicode="&#xec;" horiz-adv-x="462" d="M57 0l181 1075h143l-180 -1075h-144zM90 1448l103 104l268 -284l-66 -72z" />
<glyph unicode="&#xed;" horiz-adv-x="462" d="M57 0l181 1075h143l-180 -1075h-144zM199 1280l325 272l82 -106l-342 -250z" />
<glyph unicode="&#xee;" horiz-adv-x="462" d="M57 0l181 1075h143l-180 -1075h-144zM78 1243l262 303h104l162 -303l-84 -55l-149 231l-228 -229z" />
<glyph unicode="&#xef;" horiz-adv-x="462" d="M57 0l181 1075h143l-180 -1075h-144zM76 1323q0 43 32.5 75t77.5 32q38 0 60 -22t22 -56q0 -44 -32.5 -74.5t-77.5 -30.5q-39 0 -60.5 21.5t-21.5 54.5zM451 1323q0 44 31 75.5t81 31.5q37 0 57.5 -21.5t20.5 -56.5q0 -43 -32 -74t-77 -31q-38 0 -59.5 21.5t-21.5 54.5z " />
<glyph unicode="&#xf0;" horiz-adv-x="1054" d="M45 342q0 109 33.5 209t93.5 176.5t151 122t199 45.5q198 0 305 -156q16 270 -94 424l-190 -116l-49 94l165 102q-100 83 -260 121l56 115q200 -40 327 -158l193 119l49 -97l-170 -104q55 -77 84 -196t29 -259q0 -234 -65.5 -415.5t-196.5 -287.5t-310 -106 q-166 0 -258 97.5t-92 269.5zM193 365q0 -126 62 -192.5t163 -66.5q144 0 246.5 123.5t140.5 370.5q-24 32 -46.5 56t-57 51.5t-79 43t-94.5 15.5q-65 0 -124 -25t-107 -73t-76 -126.5t-28 -176.5z" />
<glyph unicode="&#xf1;" horiz-adv-x="1105" d="M45 0l180 1075h137l-26 -162q80 85 177.5 136t199.5 51q268 0 268 -275q0 -61 -12 -129l-117 -696h-147l110 666q10 68 10 137q0 164 -159 164q-51 0 -106 -20.5t-101.5 -52.5t-79.5 -60t-57 -54l-132 -780h-145zM360 1274q44 82 89 117.5t96 35.5q46 0 121 -33.5 t114 -33.5q29 0 49 14.5t48 57.5l73 -33q-70 -154 -180 -154q-52 0 -134 34t-106 34q-25 0 -43 -14.5t-51 -59.5z" />
<glyph unicode="&#xf2;" horiz-adv-x="1144" d="M66 389q0 86 10 150q46 268 197 414.5t382 146.5q187 0 286 -108t99 -310q0 -78 -12 -154q-41 -267 -191.5 -410t-379.5 -143q-190 0 -290.5 108t-100.5 306zM221 412q0 -306 260 -306q146 0 252 109.5t141 321.5q11 59 11 120q0 154 -69 234t-191 80 q-146 0 -255.5 -113.5t-140.5 -320.5q-8 -60 -8 -125zM446 1448l103 104l268 -284l-65 -72z" />
<glyph unicode="&#xf3;" horiz-adv-x="1144" d="M66 389q0 86 10 150q46 268 197 414.5t382 146.5q187 0 286 -108t99 -310q0 -78 -12 -154q-41 -267 -191.5 -410t-379.5 -143q-190 0 -290.5 108t-100.5 306zM221 412q0 -306 260 -306q146 0 252 109.5t141 321.5q11 59 11 120q0 154 -69 234t-191 80 q-146 0 -255.5 -113.5t-140.5 -320.5q-8 -60 -8 -125zM543 1280l325 272l82 -106l-342 -250z" />
<glyph unicode="&#xf4;" horiz-adv-x="1144" d="M66 389q0 86 10 150q46 268 197 414.5t382 146.5q187 0 286 -108t99 -310q0 -78 -12 -154q-41 -267 -191.5 -410t-379.5 -143q-190 0 -290.5 108t-100.5 306zM221 412q0 -306 260 -306q146 0 252 109.5t141 321.5q11 59 11 120q0 154 -69 234t-191 80 q-146 0 -255.5 -113.5t-140.5 -320.5q-8 -60 -8 -125zM412 1243l262 303h104l162 -303l-84 -55l-149 231l-228 -229z" />
<glyph unicode="&#xf5;" horiz-adv-x="1144" d="M66 389q0 86 10 150q46 268 197 414.5t382 146.5q187 0 286 -108t99 -310q0 -78 -12 -154q-41 -267 -191.5 -410t-379.5 -143q-190 0 -290.5 108t-100.5 306zM221 412q0 -306 260 -306q146 0 252 109.5t141 321.5q11 59 11 120q0 154 -69 234t-191 80 q-146 0 -255.5 -113.5t-140.5 -320.5q-8 -60 -8 -125zM401 1274q44 82 89 117.5t96 35.5q46 0 121 -33.5t114 -33.5q29 0 49 14.5t48 57.5l73 -33q-70 -154 -180 -154q-52 0 -134 34t-106 34q-25 0 -43 -14.5t-51 -59.5z" />
<glyph unicode="&#xf6;" horiz-adv-x="1144" d="M66 389q0 86 10 150q46 268 197 414.5t382 146.5q187 0 286 -108t99 -310q0 -78 -12 -154q-41 -267 -191.5 -410t-379.5 -143q-190 0 -290.5 108t-100.5 306zM221 412q0 -306 260 -306q146 0 252 109.5t141 321.5q11 59 11 120q0 154 -69 234t-191 80 q-146 0 -255.5 -113.5t-140.5 -320.5q-8 -60 -8 -125zM416 1323q0 43 32.5 75t77.5 32q38 0 60 -22t22 -56q0 -44 -32.5 -74.5t-77.5 -30.5q-39 0 -60.5 21.5t-21.5 54.5zM791 1323q0 44 31 75.5t81 31.5q37 0 57.5 -21.5t20.5 -56.5q0 -43 -32 -74t-77 -31 q-38 0 -59.5 21.5t-21.5 54.5z" />
<glyph unicode="&#xf7;" horiz-adv-x="1228" d="M82 551v117h1065v-117h-1065zM520 967q0 38 27.5 67t64.5 29q38 0 65.5 -28.5t27.5 -67.5q0 -37 -27.5 -65t-65.5 -28q-35 0 -63.5 29t-28.5 64zM522 260q0 38 26.5 67t63.5 29q38 0 65.5 -28t27.5 -68q0 -37 -27.5 -64.5t-65.5 -27.5q-35 0 -62.5 28.5t-27.5 63.5z" />
<glyph unicode="&#xf8;" horiz-adv-x="1144" d="M66 389q0 86 10 150q46 268 197 414.5t382 146.5q51 0 90 -8l58 122h131l-76 -159q182 -96 182 -373q0 -78 -12 -154q-41 -267 -191.5 -410t-379.5 -143q-27 0 -97 9l-61 -136h-129l80 172q-184 91 -184 369zM221 412q0 -183 92 -256l373 809q-27 6 -61 6 q-146 0 -255.5 -113.5t-140.5 -320.5q-8 -60 -8 -125zM420 111q50 -5 61 -5q146 0 252 109.5t141 321.5q11 59 11 120q0 176 -92 256z" />
<glyph unicode="&#xf9;" horiz-adv-x="1091" d="M84 233q0 37 12 123l121 719h148l-115 -684q-10 -65 -10 -125q0 -87 33.5 -122t125.5 -35q91 0 180 53t162 129l131 784h146l-180 -1075h-136l27 160q-176 -185 -377 -185q-268 0 -268 258zM424 1448l102 104l269 -284l-66 -72z" />
<glyph unicode="&#xfa;" horiz-adv-x="1091" d="M84 233q0 37 12 123l121 719h148l-115 -684q-10 -65 -10 -125q0 -87 33.5 -122t125.5 -35q91 0 180 53t162 129l131 784h146l-180 -1075h-136l27 160q-176 -185 -377 -185q-268 0 -268 258zM543 1280l325 272l82 -106l-342 -250z" />
<glyph unicode="&#xfb;" horiz-adv-x="1091" d="M84 233q0 37 12 123l121 719h148l-115 -684q-10 -65 -10 -125q0 -87 33.5 -122t125.5 -35q91 0 180 53t162 129l131 784h146l-180 -1075h-136l27 160q-176 -185 -377 -185q-268 0 -268 258zM383 1243l262 303h105l161 -303l-84 -55l-149 231l-227 -229z" />
<glyph unicode="&#xfc;" horiz-adv-x="1091" d="M84 233q0 37 12 123l121 719h148l-115 -684q-10 -65 -10 -125q0 -87 33.5 -122t125.5 -35q91 0 180 53t162 129l131 784h146l-180 -1075h-136l27 160q-176 -185 -377 -185q-268 0 -268 258zM395 1323q0 43 33 75t78 32q38 0 60 -22t22 -56q0 -44 -33 -74.5t-78 -30.5 q-39 0 -60.5 21.5t-21.5 54.5zM770 1323q0 44 31.5 75.5t81.5 31.5q37 0 57.5 -21.5t20.5 -56.5q0 -43 -32 -74t-77 -31q-39 0 -60.5 21.5t-21.5 54.5z" />
<glyph unicode="&#xfd;" horiz-adv-x="940" d="M-135 -389l37 113q82 -17 137 -17q64 0 109 43.5t108 171.5l37 78l-191 1075h154l139 -887l430 887h156l-561 -1116q-33 -66 -53 -104t-46.5 -84t-46.5 -70t-47 -50t-54 -37.5t-61 -19.5t-75 -8q-89 0 -172 25zM422 1280l326 272l81 -106l-342 -250z" />
<glyph unicode="&#xfe;" horiz-adv-x="1146" d="M-31 -410l314 1885h143l-94 -566q181 191 389 191q163 0 246.5 -110t83.5 -306q0 -149 -34 -276t-100 -224.5t-170.5 -153t-236.5 -55.5q-64 0 -118.5 16.5t-91 43.5t-58.5 51t-37 49l-90 -545h-146zM227 274q36 -67 108 -118.5t173 -51.5q179 0 283 149t104 402 q0 152 -58.5 233t-174.5 81q-171 0 -351 -195z" />
<glyph unicode="&#xff;" horiz-adv-x="940" d="M-135 -389l37 113q82 -17 137 -17q64 0 109 43.5t108 171.5l37 78l-191 1075h154l139 -887l430 887h156l-561 -1116q-33 -66 -53 -104t-46.5 -84t-46.5 -70t-47 -50t-54 -37.5t-61 -19.5t-75 -8q-89 0 -172 25zM317 1323q0 43 33 75t78 32q38 0 60 -22t22 -56 q0 -44 -33 -74.5t-78 -30.5q-39 0 -60.5 21.5t-21.5 54.5zM692 1323q0 44 31.5 75.5t81.5 31.5q37 0 57.5 -21.5t20.5 -56.5q0 -43 -32 -74t-77 -31q-39 0 -60.5 21.5t-21.5 54.5z" />
<glyph unicode="&#x152;" horiz-adv-x="2226" d="M115 573q0 180 40.5 331.5t112 260t169 184.5t212 113t240.5 37q170 0 290.5 -86t153.5 -242l49 304h885l-22 -142h-742l-86 -508h674l-20 -133h-674l-92 -551h757l-24 -141h-901l53 315q-90 -167 -240.5 -253.5t-328.5 -86.5q-233 0 -369.5 151.5t-136.5 446.5zM281 596 q0 -233 102 -353t285 -120q98 0 185.5 27.5t164.5 87.5t132.5 148t87.5 218t32 289q0 118 -29.5 207t-83 143.5t-123.5 81.5t-155 27q-129 0 -238.5 -51.5t-189.5 -146.5t-125 -238.5t-45 -319.5z" />
<glyph unicode="&#x153;" horiz-adv-x="1789" d="M66 389q0 86 10 150q46 267 195.5 414t373.5 147q139 0 228 -69t122 -179q76 114 190 181t251 67q157 0 240 -79t83 -200q0 -45 -5 -79t-23.5 -74.5t-50 -70.5t-87.5 -60.5t-133.5 -50.5t-191 -34t-256.5 -18q0 -54 6.5 -98t24.5 -88t47 -74t78.5 -49t115.5 -19 q83 0 155.5 28t166.5 91l63 -102q-196 -148 -409 -148q-136 0 -230 64.5t-131 183.5q-151 -248 -442 -248q-190 0 -290.5 108t-100.5 306zM221 412q0 -306 260 -306q146 0 252 109.5t141 321.5q11 59 11 120q0 154 -69 234t-191 80q-146 0 -255.5 -113.5t-140.5 -320.5 q-8 -60 -8 -125zM1022 551q151 9 258.5 25.5t172 37.5t101 52t48.5 63t12 76q0 69 -48.5 118.5t-150.5 49.5q-78 0 -143.5 -29.5t-108 -75t-74 -103.5t-47 -111t-20.5 -103z" />
<glyph unicode="&#x178;" horiz-adv-x="1116" d="M158 1475h172l250 -693l483 693h170l-604 -850l-105 -625h-153l104 625zM436 1669q0 43 33 75t78 32q38 0 60 -22t22 -56q0 -43 -33.5 -74t-77.5 -31q-39 0 -60.5 21.5t-21.5 54.5zM811 1669q0 44 32 75.5t81 31.5q37 0 57 -21.5t20 -56.5q0 -42 -31.5 -73.5t-76.5 -31.5 q-39 0 -60.5 21.5t-21.5 54.5z" />
<glyph unicode="&#x2c6;" horiz-adv-x="993" d="M197 1243l262 303h104l162 -303l-84 -55l-149 231l-228 -229z" />
<glyph unicode="&#x2dc;" horiz-adv-x="993" d="M186 1274q44 82 89 117.5t96 35.5q46 0 121 -33.5t114 -33.5q29 0 48.5 14.5t47.5 57.5l74 -33q-70 -154 -180 -154q-52 0 -134 34t-106 34q-25 0 -43 -14.5t-51 -59.5z" />
<glyph unicode="&#x2000;" horiz-adv-x="923" />
<glyph unicode="&#x2001;" horiz-adv-x="1847" />
<glyph unicode="&#x2002;" horiz-adv-x="923" />
<glyph unicode="&#x2003;" horiz-adv-x="1847" />
<glyph unicode="&#x2004;" horiz-adv-x="615" />
<glyph unicode="&#x2005;" horiz-adv-x="461" />
<glyph unicode="&#x2006;" horiz-adv-x="307" />
<glyph unicode="&#x2007;" horiz-adv-x="307" />
<glyph unicode="&#x2008;" horiz-adv-x="230" />
<glyph unicode="&#x2009;" horiz-adv-x="369" />
<glyph unicode="&#x200a;" horiz-adv-x="102" />
<glyph unicode="&#x2010;" horiz-adv-x="665" d="M47 492l25 143h530l-24 -143h-531z" />
<glyph unicode="&#x2011;" horiz-adv-x="665" d="M47 492l25 143h530l-24 -143h-531z" />
<glyph unicode="&#x2012;" horiz-adv-x="665" d="M47 492l25 143h530l-24 -143h-531z" />
<glyph unicode="&#x2013;" horiz-adv-x="993" d="M-20 485l18 115h993l-18 -115h-993z" />
<glyph unicode="&#x2014;" horiz-adv-x="1986" d="M-20 485l18 115h1987l-19 -115h-1986z" />
<glyph unicode="&#x2018;" horiz-adv-x="409" d="M201 1225q0 205 231 313l23 -57q-71 -39 -106 -82t-46 -101q26 13 51 13q33 0 52.5 -22t19.5 -56q0 -53 -35.5 -87t-93.5 -34q-49 0 -72.5 32t-23.5 81z" />
<glyph unicode="&#x2019;" horiz-adv-x="411" d="M199 1108q71 39 105.5 81.5t45.5 100.5q-24 -12 -51 -12q-33 0 -52.5 22t-19.5 56q0 53 35.5 87t93.5 34q49 0 73 -32t24 -81q0 -205 -232 -313z" />
<glyph unicode="&#x201a;" horiz-adv-x="395" d="M-33 -211q71 39 106 81.5t46 100.5q-24 -12 -51 -12q-33 0 -52.5 22t-19.5 56q0 53 35.5 87t93.5 34q49 0 72.5 -32t23.5 -81q0 -205 -231 -313z" />
<glyph unicode="&#x201c;" horiz-adv-x="718" d="M201 1225q0 205 231 313l23 -57q-71 -39 -106 -82t-46 -101q26 13 51 13q33 0 52.5 -22t19.5 -56q0 -53 -35.5 -87t-93.5 -34q-49 0 -72.5 32t-23.5 81zM510 1225q0 205 231 313l23 -57q-71 -39 -106 -82t-46 -101q26 13 52 13q33 0 52 -21.5t19 -56.5q0 -53 -35.5 -87 t-93.5 -34q-49 0 -72.5 32t-23.5 81z" />
<glyph unicode="&#x201d;" horiz-adv-x="720" d="M199 1108q71 39 105.5 81.5t45.5 100.5q-24 -12 -51 -12q-33 0 -52.5 22t-19.5 56q0 53 35.5 87t93.5 34q49 0 73 -32t24 -81q0 -205 -232 -313zM508 1108q71 39 105.5 81.5t45.5 100.5q-24 -12 -51 -12q-33 0 -52 21.5t-19 56.5q0 53 35.5 87t93.5 34q49 0 72.5 -32 t23.5 -81q0 -205 -232 -313z" />
<glyph unicode="&#x201e;" horiz-adv-x="702" d="M-33 -211q71 39 106 81.5t46 100.5q-24 -12 -51 -12q-33 0 -52.5 22t-19.5 56q0 53 35.5 87t93.5 34q49 0 72.5 -32t23.5 -81q0 -205 -231 -313zM274 -211q71 39 106 81.5t46 100.5q-24 -12 -51 -12q-33 0 -52.5 22t-19.5 56q0 53 35.5 87t93.5 34q49 0 72.5 -32 t23.5 -81q0 -205 -231 -313z" />
<glyph unicode="&#x2022;" horiz-adv-x="1024" d="M285 639q0 100 67.5 166.5t165.5 66.5q95 0 164.5 -66t69.5 -167q0 -103 -68.5 -169.5t-167.5 -66.5q-98 0 -164.5 67.5t-66.5 168.5z" />
<glyph unicode="&#x2026;" horiz-adv-x="1576" d="M51 84q0 53 32.5 83t84.5 30t84.5 -29.5t32.5 -81.5q0 -50 -32.5 -80.5t-84.5 -30.5q-53 0 -85 30t-32 79zM590 84q0 53 32.5 83t84.5 30t84 -29.5t32 -81.5q0 -50 -32 -80.5t-84 -30.5q-53 0 -85 30t-32 79zM1130 84q0 53 32.5 83t84.5 30t84.5 -29.5t32.5 -81.5 q0 -50 -32.5 -80.5t-84.5 -30.5q-53 0 -85 30t-32 79z" />
<glyph unicode="&#x202f;" horiz-adv-x="369" />
<glyph unicode="&#x2039;" horiz-adv-x="532" d="M70 510l10 55l352 293l68 -74l-271 -247l187 -248l-90 -76z" />
<glyph unicode="&#x203a;" horiz-adv-x="532" d="M33 287l270 248l-186 247l90 76l256 -297l-10 -55l-353 -293z" />
<glyph unicode="&#x205f;" horiz-adv-x="461" />
<glyph unicode="&#x20ac;" horiz-adv-x="1200" d="M-39 520l27 113h155q0 16 13 96q9 57 12 70h-141l28 112h144q34 110 93.5 209.5t140.5 179.5t188.5 127.5t224.5 47.5q83 0 156 -22.5t141.5 -80t109.5 -147.5l-102 -72q-51 96 -136.5 147.5t-191.5 51.5q-163 0 -288.5 -121t-192.5 -320h664l-27 -112h-668 q-3 -14 -12 -68q-10 -60 -12 -98h651l-27 -113h-626q6 -194 93 -306t240 -112q115 0 207 41.5t189 120.5l59 -88q-219 -201 -489 -201q-113 0 -200 43.5t-139 119.5t-78.5 172.5t-27.5 209.5h-178z" />
<glyph unicode="&#x2122;" horiz-adv-x="1259" d="M143 1395v80h435v-80h-175v-451h-86v451h-174zM641 944l57 531h99l151 -408l154 408h92l61 -531h-81l-44 399l-153 -399h-66l-147 399l-39 -399h-84z" />
<glyph unicode="&#x25fc;" horiz-adv-x="1075" d="M0 0v1075h1075v-1075h-1075z" />
</font>
</defs>
</svg>
